<?xml version="1.0" encoding="utf-8"?>
<!-- Generator: Adobe Illustrator 16.0.4, SVG Export Plug-In . SVG Version: 6.00 Build 0)  -->
<!DOCTYPE svg PUBLIC "-//W3C//DTD SVG 1.1//EN" "http://www.w3.org/Graphics/SVG/1.1/DTD/svg11.dtd">
<svg version="1.1" id="Layer_1" xmlns="http://www.w3.org/2000/svg" xmlns:xlink="http://www.w3.org/1999/xlink" x="0px" y="0px"
	 width="6px" height="6px" viewBox="0.5 6.5 6 6" enable-background="new 0.5 6.5 6 6" xml:space="preserve">
<rect x="0.5" y="11.5" opacity="0.04" enable-background="new    " width="1" height="1"/>
<rect x="0.5" y="7.5" opacity="0.04" enable-background="new    " width="1" height="1"/>
<rect x="1.5" y="8.5" opacity="0.04" enable-background="new    " width="1" height="1"/>
<rect x="2.5" y="9.5" opacity="0.04" enable-background="new    " width="1" height="1"/>
<rect x="3.5" y="10.5" opacity="0.04" enable-background="new    " width="1" height="1"/>
<rect x="4.5" y="11.5" opacity="0.04" enable-background="new    " width="1" height="1"/>
<rect x="1.5" y="6.5" opacity="0.04" enable-background="new    " width="1" height="1"/>
<rect x="2.5" y="7.5" opacity="0.04" enable-background="new    " width="1" height="1"/>
<rect x="3.5" y="8.5" opacity="0.04" enable-background="new    " width="1" height="1"/>
<rect x="4.5" y="9.5" opacity="0.04" enable-background="new    " width="1" height="1"/>
<rect x="5.5" y="10.5" opacity="0.04" enable-background="new    " width="1" height="1"/>
<rect x="0.5" y="6.5" opacity="0.12" enable-background="new    " width="1" height="1"/>
<rect x="1.5" y="7.5" opacity="0.12" enable-background="new    " width="1" height="1"/>
<rect x="2.5" y="8.5" opacity="0.12" enable-background="new    " width="1" height="1"/>
<rect x="3.5" y="9.5" opacity="0.12" enable-background="new    " width="1" height="1"/>
<rect x="4.5" y="10.5" opacity="0.12" enable-background="new    " width="1" height="1"/>
<rect x="5.5" y="11.5" opacity="0.12" enable-background="new    " width="1" height="1"/>
<rect x="5.5" y="6.5" opacity="0.04" enable-background="new    " width="1" height="1"/>
</svg>
