<?xml version="1.0" encoding="utf-8"?>
<!-- Generator: Adobe Illustrator 16.0.4, SVG Export Plug-In . SVG Version: 6.00 Build 0)  -->
<!DOCTYPE svg PUBLIC "-//W3C//DTD SVG 1.1//EN" "http://www.w3.org/Graphics/SVG/1.1/DTD/svg11.dtd" [
	<!ENTITY st0 "fill:none;stroke:#3E5053;stroke-width:1.4;stroke-miterlimit:10;">
	<!ENTITY st1 "fill:#8B9698;">
]>
<svg version="1.1" id="Layer_1" xmlns="http://www.w3.org/2000/svg" xmlns:xlink="http://www.w3.org/1999/xlink" x="0px" y="0px"
	 width="18px" height="18px" viewBox="0 0 18 18" style="enable-background:new 0 0 18 18;" xml:space="preserve">
<g>
	<path style="&st0;" d="M8.734,1.454c0.146-0.296,0.385-0.296,0.531,0l2.096,4.247c0.146,0.296,0.533,0.577,0.859,0.625l4.686,0.68
		c0.326,0.048,0.4,0.275,0.164,0.505l-3.391,3.306c-0.236,0.23-0.385,0.686-0.328,1.012l0.801,4.665
		c0.056,0.325-0.139,0.466-0.43,0.312l-4.191-2.203c-0.292-0.153-0.771-0.153-1.062,0L4.28,16.805
		c-0.292,0.153-0.485,0.014-0.43-0.312l0.799-4.665c0.056-0.325-0.092-0.78-0.329-1.012L0.93,7.511
		C0.693,7.28,0.767,7.053,1.094,7.005l4.686-0.68C6.107,6.277,6.493,5.996,6.639,5.7L8.734,1.454z"/>
	<path style="&st1;" d="M9,7.123l0.773,1.564L11.5,8.939l-1.25,1.218l0.295,1.72L9,11.064l-1.544,0.812l0.295-1.72L6.5,8.939
		l1.728-0.252L9,7.123 M9,4.865L8.104,6.68l-0.54,1.094L6.355,7.95L4.35,8.242l1.452,1.414l0.874,0.851L6.47,11.708l-0.342,1.997
		l1.793-0.943L9,12.195l1.08,0.566l1.793,0.941l-0.344-1.996l-0.205-1.201l0.874-0.852l1.45-1.413L11.645,7.95l-1.207-0.176
		L9.896,6.68L9,4.865L9,4.865z"/>
</g>
</svg>
