<svg version="1.1" xmlns="http://www.w3.org/2000/svg"
width="18px" height="18px" viewBox="0 0 18 18">
	<g>
		<path fill="#3E5053" d="M13.5,13.4c1.647,0,2.865,1.012,3.1,1.399v1.8H10.4v-1.8C10.635,14.412,11.854,13.4,13.5,13.4 M13.5,12
			C11.014,12,9,13.744,9,14.667V18h9v-3.332v-1v0.999C18,13.744,15.987,12,13.5,12L13.5,12z M9,13.668v0.999V13.668L9,13.668z"/>
		<path fill="#3E5053" d="M4.5,8.4c1.648,0,2.865,1.012,3.1,1.4v1.8H1.4v-1.8C1.635,9.412,2.853,8.4,4.5,8.4 M4.5,7
			C2.014,7,0,8.744,0,9.667v0.001V13h9V9.668V9.667C9,8.744,6.987,7,4.5,7L4.5,7z"/>
		<circle fill="none" stroke="#3E5053" stroke-width="1.4" stroke-miterlimit="10" cx="13.5" cy="8.5" r="2.5"/>
		<circle fill="none" stroke="#3E5053" stroke-width="1.4" stroke-miterlimit="10" cx="4.5" cy="3.5" r="2.5"/>
	</g>
</svg>
