<?xml version="1.0" encoding="utf-8"?>
<!-- Generator: Adobe Illustrator 16.0.4, SVG Export Plug-In . SVG Version: 6.00 Build 0)  -->
<!DOCTYPE svg PUBLIC "-//W3C//DTD SVG 1.1//EN" "http://www.w3.org/Graphics/SVG/1.1/DTD/svg11.dtd" [
	<!ENTITY st0 "fill:#8B9698;">
	<!ENTITY st1 "fill:#FFFFFF;stroke:#3E5053;stroke-width:1.4;stroke-miterlimit:10;">
]>
<svg version="1.1" id="Layer_1" xmlns="http://www.w3.org/2000/svg" xmlns:xlink="http://www.w3.org/1999/xlink" x="0px" y="0px"
	 width="18px" height="18px" viewBox="0 0 18 18" style="enable-background:new 0 0 18 18;" xml:space="preserve">
<g>
	<g>
		<path style="&st0;" d="M8,3.4c3.088,0,5.6,2.512,5.6,5.6s-2.512,5.6-5.6,5.6S2.4,12.088,2.4,9S4.912,3.4,8,3.4 M8,2
			C4.135,2,1,5.135,1,9s3.135,7,7,7s7-3.135,7-7S11.865,2,8,2L8,2z"/>
	</g>
</g>
<path style="&st1;" d="M7,3.5C7,4.881,5.882,6,4.5,6C3.119,6,2,4.881,2,3.5C2,2.118,3.119,1,4.5,1C5.062,1,5.582,1.186,6,1.499
	C6.607,1.954,7,2.681,7,3.5z"/>
<circle style="&st1;" cx="4.5" cy="14.5" r="2.5"/>
<circle style="&st1;" cx="14.5" cy="8.5" r="2.5"/>
</svg>
