<?xml version="1.0" encoding="utf-8"?>
<!-- Generator: Adobe Illustrator 16.0.4, SVG Export Plug-In . SVG Version: 6.00 Build 0)  -->
<!DOCTYPE svg PUBLIC "-//W3C//DTD SVG 1.1//EN" "http://www.w3.org/Graphics/SVG/1.1/DTD/svg11.dtd">
<svg version="1.1" id="Layer_1" xmlns="http://www.w3.org/2000/svg" xmlns:xlink="http://www.w3.org/1999/xlink" x="0px" y="0px"
	 width="18px" height="18px" viewBox="0 0 18 18" style="enable-background:new 0 0 18 18;" xml:space="preserve">
<style type="text/css">
<![CDATA[
	.st0{fill:#F3695A;}
]]>
</style>
<g>
	<path class="st0" d="M9,1.6c4.08,0,7.4,3.319,7.4,7.4c0,4.08-3.32,7.4-7.4,7.4c-4.081,0-7.4-3.32-7.4-7.4
			C1.6,4.919,4.919,1.6,9,1.6 M9,0C4.029,0,0,4.029,0,9s4.029,9,9,9s9-4.029,9-9S13.971,0,9,0L9,0z"/>
</g>
<g>
	<path class="st0" d="M10,13c0,0.55-0.45,1-1,1l0,0c-0.55,0-1-0.45-1-1V8c0-0.55,0.45-1,1-1l0,0c0.55,0,1,0.45,1,1V13z"/>
</g>
<rect x="8" y="4" class="st0" width="2" height="2"/>
</svg>
