<svg version="1.1" xmlns="http://www.w3.org/2000/svg"
	width="16px" height="18px" viewBox="0 0 16 18">
	<g>
		<path fill="#F3695A" d="M8,1.2c3.198,0,5.8,2.635,5.8,5.873c0,1.848-2.391,4.53-4.137,6.489C8.994,14.313,8.438,14.944,8,15.497
			c-0.438-0.553-0.994-1.184-1.664-1.935C4.591,11.604,2.2,8.921,2.2,7.073C2.2,3.835,4.802,1.2,8,1.2 M8,0C4.134,0,1,3.167,1,7.073
			C1,10.977,8,16.124,8,18c0-1.876,7-7.023,7-10.927C15,3.167,11.865,0,8,0L8,0z"/>
		<path fill="#F9B4AC" d="M8,5c1.106,0,2,0.894,2,2c0,1.106-0.894,2-2,2C6.894,9,6,8.106,6,7C6,5.894,6.894,5,8,5 M8,4
			C6.346,4,5,5.346,5,7s1.346,3,3,3s3-1.346,3-3S9.654,4,8,4L8,4z"/>
	</g>
</svg>
