<?xml version="1.0" encoding="utf-8"?>
<!-- Generator: Adobe Illustrator 16.0.4, SVG Export Plug-In . SVG Version: 6.00 Build 0)  -->
<!DOCTYPE svg PUBLIC "-//W3C//DTD SVG 1.1//EN" "http://www.w3.org/Graphics/SVG/1.1/DTD/svg11.dtd" [
	<!ENTITY st0 "fill:#8B9698;">
	<!ENTITY st1 "fill:#3E5053;">
]>
<svg version="1.1" id="Layer_1" xmlns="http://www.w3.org/2000/svg" xmlns:xlink="http://www.w3.org/1999/xlink" x="0px" y="0px"
	 width="16px" height="16px" viewBox="0 0 16 16" style="enable-background:new 0 0 16 16;" xml:space="preserve">
<g>
	<rect x="1" y="2" style="&st0;" width="1" height="9"/>
	<rect x="14" y="2" style="&st0;" width="1" height="9"/>
	<path style="&st1;" d="M15.3,1H9.5C9.776,1,10,0.776,10,0.5S9.776,0,9.5,0h-3C6.224,0,6,0.224,6,0.5S6.224,1,6.5,1H0.7
		C0.313,1,0,1.313,0,1.7s0.313,0.7,0.7,0.7h14.6c0.387,0,0.7-0.313,0.7-0.7S15.687,1,15.3,1z"/>
	<path style="&st1;" d="M15.3,10.6H0.7c-0.387,0-0.7,0.313-0.7,0.7S0.313,12,0.7,12h6.6v0.894l-3.147,1.798
		c-0.336,0.192-0.453,0.62-0.261,0.955C4.021,15.873,4.258,16,4.5,16c0.118,0,0.237-0.029,0.347-0.092L8,14.105l3.152,1.803
		C11.262,15.971,11.381,16,11.5,16c0.242,0,0.479-0.127,0.607-0.354c0.192-0.335,0.076-0.763-0.26-0.955L8.7,12.894V12h6.6
		c0.387,0,0.7-0.313,0.7-0.7S15.687,10.6,15.3,10.6z"/>
</g>
</svg>
