<?xml version="1.0" encoding="utf-8"?>
<!-- Generator: Adobe Illustrator 16.0.4, SVG Export Plug-In . SVG Version: 6.00 Build 0)  -->
<!DOCTYPE svg PUBLIC "-//W3C//DTD SVG 1.1//EN" "http://www.w3.org/Graphics/SVG/1.1/DTD/svg11.dtd" [
	<!ENTITY st0 "fill:#8B9698;">
	<!ENTITY st1 "fill:#3E5053;">
]>
<svg version="1.1" id="Layer_1" xmlns="http://www.w3.org/2000/svg" xmlns:xlink="http://www.w3.org/1999/xlink" x="0px" y="0px"
	 width="18px" height="18px" viewBox="0 0 18 18" style="enable-background:new 0 0 18 18;" xml:space="preserve">
<g>
	<g>
		<path style="&st1;" d="M14.6,2.4v13.2H3.4V2.4H14.6 M15,1H3C2.45,1,2,1.45,2,2v14c0,0.55,0.45,1,1,1h12c0.55,0,1-0.45,1-1V2
			C16,1.45,15.55,1,15,1L15,1z"/>
	</g>
</g>
<g>
	<polyline style="&st0;" points="12,5 6,5 6,6 12,6 12,5 	"/>
	<polyline style="&st0;" points="12,7 6,7 6,8 12,8 12,7 	"/>
	<polyline style="&st0;" points="12,9 6,9 6,10 12,10 12,9 	"/>
	<polyline style="&st0;" points="10,11 6,11 6,12 10,12 10,11 	"/>
</g>
</svg>
