<svg version="1.1" xmlns="http://www.w3.org/2000/svg"
width="18px" height="18px" viewBox="0 0 18 18">
	<g>
		<path fill="#3E5053" d="M15.6,1.4v15.2H2.4V1.4H15.6 M16,0H2C1.45,0,1,0.45,1,1v16c0,0.55,0.45,1,1,1h14c0.55,0,1-0.45,1-1V1
			C17,0.45,16.55,0,16,0L16,0z"/>
		<rect x="5" y="4" fill="#8B9698" width="8" height="1"/>
		<rect x="5" y="6" fill="#8B9698" width="8" height="1"/>
		<rect x="5" y="10" fill="#8B9698" width="8" height="1"/>
		<rect x="5" y="8" fill="#8B9698" width="8" height="1"/>
		<rect x="5" y="12" fill="#8B9698" width="6" height="1"/>
	</g>
</svg>
