<?xml version="1.0" encoding="utf-8"?>
<!-- Generator: Adobe Illustrator 16.0.4, SVG Export Plug-In . SVG Version: 6.00 Build 0)  -->
<!DOCTYPE svg PUBLIC "-//W3C//DTD SVG 1.1//EN" "http://www.w3.org/Graphics/SVG/1.1/DTD/svg11.dtd" [
	<!ENTITY st0 "opacity:0.5;fill:#55ACEE;">
	<!ENTITY st1 "fill:#55ACEE;">
	<!ENTITY st2 "opacity:0.5;">
	<!ENTITY st3 "fill:#362B3C;">
]>
<svg version="1.1" id="Layer_1" xmlns="http://www.w3.org/2000/svg" xmlns:xlink="http://www.w3.org/1999/xlink" x="0px" y="0px"
	 width="48px" height="102px" viewBox="0 0 48 102" style="enable-background:new 0 0 48 102;" xml:space="preserve">
<g>
	<path style="&st1;" d="M24,47.5C11.042,47.5,0.5,36.958,0.5,24S11.042,0.5,24,0.5S47.5,11.042,47.5,24S36.958,47.5,24,47.5z
		 M10.729,33.835c2.711,1.743,5.85,2.664,9.076,2.664c10.543,0,16.843-8.563,16.843-16.842c0-0.166-0.003-0.332-0.007-0.497
		c1.085-0.821,2.018-1.81,2.774-2.944l0.957-1.434l-1.576,0.7c-0.418,0.186-0.847,0.345-1.284,0.477
		c0.531-0.624,0.938-1.35,1.189-2.14l0.399-1.254l-1.131,0.672c-0.995,0.59-2.079,1.02-3.226,1.277
		c-1.165-1.128-2.737-1.77-4.358-1.77c-3.443,0-6.245,2.801-6.245,6.244c0,0.26,0.015,0.516,0.045,0.765
		c-4.227-0.383-8.151-2.463-10.847-5.771l-0.456-0.56l-0.363,0.624c-0.555,0.95-0.848,2.035-0.848,3.138
		c0,1.468,0.487,2.851,1.352,3.938c-0.251-0.091-0.521-0.202-0.826-0.332l-0.697-0.299v0.758c0,2.235,1.163,4.225,2.956,5.35
		c-0.078-0.012-0.156-0.026-0.236-0.042l-0.832-0.164l0.259,0.807c0.675,2.109,2.405,3.669,4.504,4.171
		c-1.739,1.071-3.715,1.632-5.783,1.632c-0.409,0-0.825-0.027-1.31-0.085l-2.161-0.26L10.729,33.835z"/>
	<path style="&st3;" d="M24,1c12.683,0,23,10.318,23,23S36.683,47,24,47C11.318,47,1,36.682,1,24S11.318,1,24,1 M34.889,13.966
		c-1.234-1.1-2.845-1.721-4.503-1.721c-3.72,0-6.745,3.025-6.745,6.744c0,0.068,0.001,0.135,0.003,0.202
		c-3.868-0.502-7.432-2.474-9.917-5.524l-0.912-1.119l-0.728,1.247c-0.599,1.026-0.916,2.199-0.916,3.39
		c0,1.021,0.219,2.005,0.626,2.89l-0.797-0.341v1.517v0.07c0,1.67,0.629,3.228,1.684,4.425l-0.031-0.006l0.517,1.615
		c0.604,1.887,1.99,3.368,3.737,4.128c-1.407,0.673-2.944,1.022-4.539,1.022c-0.389,0-0.786-0.026-1.25-0.082l-4.322-0.52
		l3.662,2.354c2.792,1.794,6.023,2.743,9.346,2.743c10.855,0,17.343-8.817,17.343-17.342c0-0.085-0.001-0.17-0.002-0.254
		c1.043-0.823,1.945-1.799,2.686-2.908l1.915-2.869l-2.965,1.316c0.156-0.311,0.289-0.636,0.396-0.971l0.8-2.507l-2.264,1.344
		C36.838,13.327,35.89,13.716,34.889,13.966 M24,0C10.744,0,0,10.745,0,24c0,13.256,10.744,24,24,24s24-10.744,24-24
		C48,10.745,37.256,0,24,0L24,0z M24.791,20.298c-0.101-0.415-0.15-0.857-0.15-1.309c0-3.172,2.572-5.744,5.745-5.744
		c1.654,0,3.145,0.701,4.194,1.815c1.307-0.262,2.536-0.735,3.645-1.394c-0.428,1.341-1.34,2.467-2.521,3.178
		c1.157-0.139,2.266-0.448,3.295-0.905c-0.771,1.154-1.743,2.163-2.865,2.975c0.008,0.245,0.014,0.494,0.014,0.743
		c0,7.589-5.772,16.342-16.343,16.342c-3.241,0-6.264-0.95-8.806-2.584c0.455,0.055,0.905,0.089,1.369,0.089
		c2.692,0,5.163-0.924,7.129-2.461c-2.514-0.051-4.643-1.709-5.374-3.994c0.351,0.069,0.693,0.107,1.067,0.107
		c0.523,0,0.998-0.073,1.48-0.203c-2.629-0.529-4.67-2.851-4.67-5.633c0-0.024,0-0.046,0-0.07c1,0.429,1.722,0.684,2.666,0.713
		c-1.544-1.027-2.495-2.786-2.495-4.778c0-1.051,0.284-2.037,0.779-2.886C15.783,17.774,20.015,20.059,24.791,20.298L24.791,20.298z
		"/>
</g>
<g>
	<g style="&st2;">
		<path style="&st1;" d="M24,54C10.744,54,0,64.745,0,78c0,13.256,10.744,24,24,24s24-10.744,24-24C48,64.745,37.256,54,24,54z
			 M36.134,72.914c0.008,0.245,0.014,0.494,0.014,0.743c0,7.589-5.772,16.342-16.343,16.342c-3.241,0-6.264-0.95-8.806-2.584
			c0.455,0.055,0.905,0.089,1.369,0.089c2.692,0,5.163-0.924,7.129-2.461c-2.514-0.051-4.643-1.709-5.374-3.994
			c0.351,0.069,0.693,0.107,1.067,0.107c0.523,0,0.998-0.073,1.48-0.203c-2.629-0.529-4.67-2.851-4.67-5.633c0-0.024,0-0.046,0-0.07
			c1,0.429,1.722,0.684,2.666,0.713c-1.544-1.027-2.495-2.786-2.495-4.778c0-1.051,0.284-2.037,0.779-2.886
			c2.832,3.476,7.063,5.76,11.84,5.999c-0.101-0.415-0.15-0.857-0.15-1.309c0-3.172,2.572-5.744,5.745-5.744
			c1.654,0,3.145,0.701,4.194,1.815c1.307-0.262,2.536-0.735,3.645-1.394c-0.428,1.341-1.34,2.467-2.521,3.178
			c1.157-0.139,2.266-0.448,3.295-0.905C38.229,71.094,37.256,72.103,36.134,72.914z"/>
	</g>
	<g>
		<path style="&st3;" d="M24,51C10.744,51,0,61.745,0,75c0,13.256,10.744,24,24,24s24-10.744,24-24C48,61.745,37.256,51,24,51z
			 M36.134,69.914c0.008,0.245,0.014,0.494,0.014,0.743c0,7.589-5.772,16.342-16.343,16.342c-3.241,0-6.264-0.95-8.806-2.584
			c0.455,0.055,0.905,0.089,1.369,0.089c2.692,0,5.163-0.924,7.129-2.461c-2.514-0.051-4.643-1.709-5.374-3.994
			c0.351,0.069,0.693,0.107,1.067,0.107c0.523,0,0.998-0.073,1.48-0.203c-2.629-0.529-4.67-2.851-4.67-5.633c0-0.024,0-0.046,0-0.07
			c1,0.429,1.722,0.684,2.666,0.713c-1.544-1.027-2.495-2.786-2.495-4.778c0-1.051,0.284-2.037,0.779-2.886
			c2.832,3.476,7.063,5.76,11.84,5.999c-0.101-0.415-0.15-0.857-0.15-1.309c0-3.172,2.572-5.744,5.745-5.744
			c1.654,0,3.145,0.701,4.194,1.815c1.307-0.262,2.536-0.735,3.645-1.394c-0.428,1.341-1.34,2.467-2.521,3.178
			c1.157-0.139,2.266-0.448,3.295-0.905C38.229,68.094,37.256,69.103,36.134,69.914z"/>
	</g>
</g>
<path style="&st0;" d="M47.949,25.5c-0.084,1.348-0.279,2.663-0.576,3.941c-0.317,1.369-0.747,2.695-1.287,3.965
	C42.427,41.985,33.917,48,24,48S5.572,41.985,1.914,33.405c-0.54-1.269-0.97-2.595-1.287-3.964C0.33,28.163,0.135,26.848,0.052,25.5
	C0.021,25.996,0,26.496,0,27c0,13.256,10.744,24,24,24s24-10.744,24-24C48,26.496,47.979,25.996,47.949,25.5z"/>
</svg>
