<?xml version="1.0" encoding="utf-8"?>
<!-- Generator: Adobe Illustrator 16.0.4, SVG Export Plug-In . SVG Version: 6.00 Build 0)  -->
<!DOCTYPE svg PUBLIC "-//W3C//DTD SVG 1.1//EN" "http://www.w3.org/Graphics/SVG/1.1/DTD/svg11.dtd" [
	<!ENTITY st0 "opacity:0.5;">
	<!ENTITY st1 "opacity:0.5;fill:#0873B2;">
	<!ENTITY st2 "fill:#362B3C;">
	<!ENTITY st3 "fill:#0873B2;">
]>
<svg version="1.1" id="Layer_1" xmlns="http://www.w3.org/2000/svg" xmlns:xlink="http://www.w3.org/1999/xlink" x="0px" y="0px"
	 width="48px" height="102px" viewBox="0 0 48 102" style="enable-background:new 0 0 48 102;" xml:space="preserve">
<g>
	<g style="&st0;">
		<path style="&st3;" d="M24,54C10.744,54,0,64.745,0,78c0,13.256,10.744,24,24,24s24-10.744,24-24C48,64.745,37.256,54,24,54z
			 M16.68,89.676h-5.346v-17.18h5.346V89.676z M14.008,70.148c-1.715,0-3.098-1.387-3.098-3.096s1.383-3.097,3.098-3.097
			c1.709,0,3.096,1.388,3.096,3.097S15.717,70.148,14.008,70.148z M36.678,89.676h-5.34v-8.354c0-1.992-0.033-4.556-2.773-4.556
			c-2.779,0-3.203,2.172-3.203,4.413v8.497h-5.332v-17.18h5.117v2.349h0.074c0.711-1.351,2.453-2.774,5.051-2.774
			c5.406,0,6.406,3.557,6.406,8.184V89.676z"/>
	</g>
	<g>
		<path style="&st2;" d="M24,51C10.744,51,0,61.745,0,75c0,13.256,10.744,24,24,24s24-10.744,24-24C48,61.745,37.256,51,24,51z
			 M16.68,86.676h-5.346v-17.18h5.346V86.676z M14.008,67.148c-1.715,0-3.098-1.387-3.098-3.096s1.383-3.097,3.098-3.097
			c1.709,0,3.096,1.388,3.096,3.097S15.717,67.148,14.008,67.148z M36.678,86.676h-5.34v-8.354c0-1.992-0.033-4.556-2.773-4.556
			c-2.779,0-3.203,2.172-3.203,4.413v8.497h-5.332v-17.18h5.117v2.349h0.074c0.711-1.351,2.453-2.774,5.051-2.774
			c5.406,0,6.406,3.557,6.406,8.184V86.676z"/>
	</g>
</g>
<g>
	<path style="&st3;" d="M24,47.5C11.042,47.5,0.5,36.958,0.5,24S11.042,0.5,24,0.5S47.5,11.042,47.5,24S36.958,47.5,24,47.5z
		 M28.564,23.266c2.106,0,2.273,1.758,2.273,4.056v8.854h6.34v-9.922c0-4.294-0.82-8.684-6.906-8.684
		c-2.081,0-3.642,0.859-4.625,1.867v-1.441h-6.117v18.18h6.332v-8.997C25.861,24.363,26.619,23.266,28.564,23.266z M10.834,36.176
		h6.346v-18.18h-6.346V36.176z M14.008,9.456c-1.984,0-3.598,1.613-3.598,3.597c0,1.983,1.614,3.596,3.598,3.596
		c1.983,0,3.596-1.613,3.596-3.596C17.604,11.069,15.991,9.456,14.008,9.456z"/>
	<path style="&st2;" d="M24,1c12.683,0,23,10.318,23,23S36.683,47,24,47C11.318,47,1,36.682,1,24S11.318,1,24,1 M14.008,17.148
		c2.258,0,4.096-1.837,4.096-4.096c0-2.259-1.837-4.097-4.096-4.097c-2.259,0-4.098,1.838-4.098,4.097
		C9.91,15.311,11.749,17.148,14.008,17.148 M26.146,18.354v-0.858h-1h-5.117h-1v1v17.18v1h1h5.332h1v-1v-8.497
		c0-2.854,0.808-3.413,2.203-3.413c1.393,0,1.773,0.764,1.773,3.556v8.354v1h1h5.34h1v-1v-9.422c0-4.276-0.842-9.184-7.406-9.184
		C28.565,17.07,27.18,17.612,26.146,18.354 M10.334,36.676h1h5.346h1v-1v-17.18v-1h-1h-5.346h-1v1v17.18V36.676 M24,0
		C10.744,0,0,10.745,0,24c0,13.256,10.744,24,24,24s24-10.744,24-24C48,10.745,37.256,0,24,0L24,0z M14.008,16.148
		c-1.715,0-3.098-1.387-3.098-3.096s1.383-3.097,3.098-3.097c1.709,0,3.096,1.388,3.096,3.097S15.717,16.148,14.008,16.148
		L14.008,16.148z M25.146,20.845h0.074c0.711-1.351,2.453-2.774,5.051-2.774c5.406,0,6.406,3.557,6.406,8.184v9.422h-5.34v-8.354
		c0-1.992-0.033-4.556-2.773-4.556c-2.779,0-3.203,2.172-3.203,4.413v8.497h-5.332v-17.18h5.117V20.845L25.146,20.845z
		 M11.334,35.676v-17.18h5.346v17.18H11.334L11.334,35.676z"/>
</g>
<path style="&st1;" d="M47.949,25.5c-0.084,1.348-0.279,2.663-0.576,3.941c-0.317,1.369-0.747,2.695-1.287,3.965
	C42.427,41.985,33.917,48,24,48S5.572,41.985,1.914,33.405c-0.54-1.269-0.97-2.595-1.287-3.964C0.33,28.163,0.135,26.848,0.052,25.5
	C0.021,25.996,0,26.496,0,27c0,13.256,10.744,24,24,24s24-10.744,24-24C48,26.496,47.979,25.996,47.949,25.5z"/>
</svg>
