<?xml version="1.0" encoding="utf-8"?>
<!-- Generator: Adobe Illustrator 16.0.4, SVG Export Plug-In . SVG Version: 6.00 Build 0)  -->
<!DOCTYPE svg PUBLIC "-//W3C//DTD SVG 1.1//EN" "http://www.w3.org/Graphics/SVG/1.1/DTD/svg11.dtd">
<svg version="1.1" xmlns="http://www.w3.org/2000/svg" xmlns:xlink="http://www.w3.org/1999/xlink" x="0px" y="0px" width="48px"
	 height="102px" viewBox="0 0 48 102" style="enable-background:new 0 0 48 102;" xml:space="preserve">
<style type="text/css">
<![CDATA[
	.st0{display:inline;fill:#E8C95A;}
	.st1{fill-rule:evenodd;clip-rule:evenodd;fill:#71117E;}
	.st2{fill:#12A8A5;}
	.st3{fill:#E29A4C;}
	.st4{fill:#E3A730;}
	.st5{fill:#E3F2BF;}
	.st6{fill:#E4F0D7;}
	.st7{fill:#E55F7C;}
	.st8{opacity:0.5;fill:#55ACEE;}
	.st9{fill:#E6E6E6;}
	.st10{fill:#198583;}
	.st11{fill-rule:evenodd;clip-rule:evenodd;fill:none;}
	.st12{fill:#E8C95A;}
	.st13{opacity:0.5;fill:#BC112A;}
	.st14{opacity:0.15;}
	.st15{opacity:0.25;}
	.st16{opacity:0.35;}
	.st17{opacity:0.5;fill:none;stroke:#F3695A;stroke-miterlimit:10;}
	.st18{opacity:0.5;fill:#F3695A;}
	.st19{fill:#EAAF56;}
	.st20{fill:#EB9A2D;}
	.st21{fill:#EBB060;}
	.st22{fill:#EDA44C;}
	.st23{fill:#534E58;}
	.st24{display:inline;fill:#F3695A;}
	.st25{fill:#55ACEE;}
	.st26{opacity:0.2;fill:#EDA44C;stroke:#362B3C;stroke-miterlimit:10;}
	.st27{fill:#575757;}
	.st28{display:inline;fill:none;stroke:#3E5054;stroke-width:1.2;stroke-miterlimit:10;}
	.st29{fill:#58504E;}
	.st30{fill:#8C652F;}
	.st31{fill:#BC112A;}
	.st32{fill:#BD081C;}
	.st33{fill:#8E8A75;}
	.st34{fill:#BEBEBF;}
	.st35{fill:#BF1B3A;}
	.st36{fill:#F19D39;}
	.st37{fill:#238D83;}
	.st38{fill:#F2C549;}
	.st39{fill:#F3695A;}
	.st40{fill:#299488;}
	.st41{display:inline;fill:#999999;}
	.st42{display:inline;fill:#FCC457;}
	.st43{fill:#F9B4AC;}
	.st44{fill-rule:evenodd;clip-rule:evenodd;fill:#EDA44C;}
	.st45{opacity:0.5;fill:#9D47B2;}
	.st46{fill:#C1DA84;}
	.st47{display:inline;fill:#FFFFFF;}
	.st48{fill:#C2BAC4;}
	.st49{fill:#2B8F83;}
	.st50{fill:#FBAB01;}
	.st51{fill:#999999;}
	.st52{fill:#FCC457;}
	.st53{fill:none;stroke:#EB9A2D;stroke-width:2;stroke-linecap:round;stroke-linejoin:round;stroke-miterlimit:10;}
	.st54{opacity:0.2;fill:#9D47B2;}
	.st55{fill-rule:evenodd;clip-rule:evenodd;}
	.st56{display:inline;fill:#CCCCCC;}
	.st57{opacity:0.2;}
	.st58{opacity:0.3;}
	.st59{opacity:0.4;}
	.st60{opacity:0.5;}
	.st61{opacity:0.6;}
	.st62{fill:#615957;}
	.st63{fill:#FFDD8B;}
	.st64{fill:#FFFFFF;}
	.st65{display:inline;fill:#333333;}
	.st66{fill:none;}
	.st67{display:inline;fill:#362B3C;}
	.st68{fill:none;stroke:#3E5054;stroke-width:1.2;stroke-linecap:round;stroke-linejoin:round;stroke-miterlimit:10;}
	.st69{fill:#9D47B2;}
	.st70{fill:#CCCCCC;}
	.st71{display:inline;}
	.st72{opacity:0.5;fill:#0873B2;}
	.st73{fill:#333333;}
	.st74{display:inline;fill:none;}
	.st75{fill:#362B3C;}
	.st76{opacity:0.6;fill:#EDA44C;}
	.st77{display:inline;fill:#3E5054;}
	.st78{fill-rule:evenodd;clip-rule:evenodd;fill:#643C6B;}
	.st79{fill:#0873B2;}
	.st80{fill-rule:evenodd;clip-rule:evenodd;fill:#9D47B2;}
	.st81{fill:#3E5054;}
	.st82{fill:none;stroke:#EB9A2D;stroke-width:1.6;stroke-miterlimit:10;}
	.st83{fill:#71117E;}
	.st84{display:none;}
	.st85{fill:#75685E;}
	.st86{fill-rule:evenodd;clip-rule:evenodd;fill:#362B3C;}
	.st87{fill:#DADBD0;}
	.st88{fill:#0D8072;}
	.st89{fill:#40413B;}
	.st90{opacity:0.5;fill:none;stroke:#362B3C;stroke-miterlimit:10;}
	.st91{fill:#45D7B0;}
]]>
</style>
<g id="Desc">
	<rect id="_x3C_Slice_x3E__1_" class="st66" width="48" height="102"/>
	<g>
		<path class="st69" d="M18.13,46.753c-4.696-1.211-8.98-3.906-12.118-7.638C2.457,34.891,0.5,29.522,0.5,24
			C0.5,11.042,11.042,0.5,24,0.5S47.5,11.042,47.5,24c0,5.521-1.956,10.888-5.509,15.111c-3.139,3.732-7.423,6.43-12.117,7.641
			c0.007-3.762,0.014-8.751,0.014-10.264c0-1.438-0.348-2.71-0.975-3.631c4.279-0.639,9.382-2.684,9.382-11.046
			c0-2.264-0.724-4.251-2.15-5.91c0.303-0.911,0.764-3.06-0.322-5.801l-0.087-0.219L35.511,9.81
			c-0.055-0.018-0.261-0.074-0.636-0.074c-0.829,0-2.641,0.293-5.549,2.225c-1.69-0.447-3.48-0.678-5.323-0.685
			c-1.849,0.007-3.639,0.237-5.326,0.685c-2.911-1.933-4.724-2.225-5.554-2.225c-0.375,0-0.581,0.057-0.635,0.073l-0.226,0.072
			l-0.087,0.221c-1.084,2.741-0.623,4.89-0.32,5.8c-1.429,1.664-2.152,3.651-2.152,5.91c0,8.358,5.096,10.413,9.365,11.062
			c-0.399,0.592-0.688,1.331-0.838,2.165c-0.477,0.188-1.22,0.418-2.024,0.418c-1.429,0-2.569-0.712-3.389-2.115
			c-0.046-0.083-1.294-2.306-3.708-2.477c-0.003,0-0.007,0-0.011,0c-0.504,0-1.293,0.093-1.477,0.687
			c-0.19,0.617,0.445,1.147,1.021,1.54c0.078,0.044,1.332,0.685,2.218,2.934l0,0c-0.002,0,1.099,3.468,5.574,3.468
			c0.531,0,1.095-0.05,1.68-0.147C18.119,40.768,18.13,46.753,18.13,46.753z"/>
		<path class="st75" d="M24,1c12.683,0,23,10.318,23,23c0,5.404-1.915,10.656-5.392,14.79c-2.932,3.487-6.884,6.05-11.233,7.307
			c0.007-3.665,0.013-8.183,0.013-9.608c0-1.225-0.24-2.343-0.683-3.255c4.301-0.788,9.09-3.136,9.09-11.422
			c0-2.292-0.704-4.314-2.094-6.023c0.311-1.09,0.633-3.228-0.414-5.871l-0.174-0.439l-0.45-0.145
			c-0.092-0.029-0.353-0.099-0.788-0.099c-1.057,0-2.879,0.388-5.639,2.186c-1.667-0.421-3.426-0.638-5.239-0.645
			c-1.809,0.007-3.565,0.224-5.23,0.645c-2.762-1.798-4.586-2.186-5.644-2.186c-0.436,0-0.695,0.069-0.788,0.099l-0.45,0.145
			l-0.174,0.44c-1.046,2.643-0.723,4.781-0.412,5.871c-1.392,1.712-2.096,3.735-2.096,6.022c0,8.282,4.783,10.639,9.076,11.438
			c-0.208,0.431-0.371,0.907-0.484,1.419c-0.424,0.146-0.989,0.289-1.589,0.289c-1.256,0-2.223-0.611-2.944-1.846
			c-0.057-0.104-1.435-2.555-4.117-2.744l-0.043-0.003H9.066c-1.032,0-1.715,0.369-1.922,1.04c-0.324,1.049,0.795,1.812,1.217,2.101
			l0.067,0.043l0.053,0.027c0.045,0.023,1.104,0.593,1.903,2.607c0.161,0.478,1.454,3.811,6.05,3.811
			c0.38,0,0.774-0.024,1.182-0.071c0.004,1.487,0.009,3.963,0.013,6.176c-4.351-1.257-8.303-3.818-11.234-7.304
			C2.916,34.658,1,29.404,1,24C1,11.318,11.317,1,24,1 M24,0C10.745,0,0,10.745,0,24c0,5.881,2.118,11.264,5.629,15.438
			c3.3,3.923,7.832,6.77,13.002,7.952c-0.006-3.224-0.014-7.715-0.019-8.648c-0.809,0.176-1.532,0.252-2.178,0.252
			c-4.158,0-5.109-3.151-5.109-3.151c-0.982-2.496-2.4-3.163-2.4-3.163c-1.892-1.291,0.001-1.314,0.142-1.314
			c0.005,0,0.008,0,0.008,0c2.17,0.153,3.312,2.229,3.312,2.229c1.078,1.847,2.532,2.363,3.82,2.363
			c1.017,0,1.931-0.322,2.474-0.565c0.196-1.398,0.755-2.353,1.374-2.892c-4.802-0.547-9.851-2.401-9.851-10.688
			c0-2.361,0.843-4.29,2.225-5.802c-0.222-0.548-0.965-2.746,0.213-5.725c0,0,0.156-0.051,0.482-0.051
			c0.783,0,2.546,0.291,5.465,2.268c1.726-0.479,3.574-0.72,5.413-0.727c1.837,0.007,3.686,0.247,5.414,0.727
			c2.917-1.977,4.678-2.268,5.46-2.268c0.326,0,0.482,0.051,0.482,0.051c1.18,2.979,0.437,5.177,0.215,5.725
			c1.385,1.512,2.223,3.44,2.223,5.802c0,8.309-5.057,10.136-9.874,10.67c0.776,0.67,1.467,1.989,1.467,4.007
			c0,1.6-0.008,7.088-0.015,10.9c5.169-1.183,9.701-4.031,13.001-7.955C45.883,35.262,48,29.881,48,24C48,10.745,37.255,0,24,0L24,0
			z"/>
	</g>
	<g>
		<g class="st60">
			<path class="st83" d="M24,54C10.745,54,0,64.745,0,78c0,5.881,2.118,11.264,5.629,15.438c3.3,3.923,7.832,6.77,13.002,7.952
				c-0.006-3.224-0.014-7.715-0.019-8.648c-6.017,1.307-7.287-2.899-7.287-2.899c-0.982-2.496-2.4-3.163-2.4-3.163
				c-1.963-1.34,0.149-1.314,0.149-1.314c2.17,0.153,3.312,2.229,3.312,2.229c1.93,3.305,5.062,2.35,6.294,1.798
				c0.196-1.398,0.755-2.353,1.374-2.892c-4.802-0.547-9.851-2.401-9.851-10.688c0-2.361,0.843-4.29,2.225-5.802
				c-0.222-0.548-0.965-2.746,0.213-5.725c0,0,1.814-0.582,5.947,2.217c1.726-0.479,3.574-0.72,5.413-0.727
				c1.837,0.007,3.686,0.247,5.414,0.727c4.13-2.799,5.942-2.217,5.942-2.217c1.18,2.979,0.437,5.177,0.215,5.725
				c1.385,1.512,2.223,3.44,2.223,5.802c0,8.309-5.057,10.136-9.874,10.67c0.776,0.67,1.467,1.989,1.467,4.007
				c0,1.6-0.008,7.088-0.015,10.9c5.169-1.183,9.701-4.031,13.001-7.955C45.883,89.262,48,83.881,48,78C48,64.745,37.255,54,24,54z"
				/>
		</g>
		<g>
			<path class="st75" d="M24,51C10.745,51,0,61.745,0,75c0,5.881,2.118,11.264,5.629,15.438c3.3,3.923,7.832,6.77,13.002,7.952
				c-0.006-3.224-0.014-7.715-0.019-8.648c-6.017,1.307-7.287-2.899-7.287-2.899c-0.982-2.496-2.4-3.163-2.4-3.163
				c-1.963-1.34,0.149-1.314,0.149-1.314c2.17,0.153,3.312,2.229,3.312,2.229c1.93,3.305,5.062,2.35,6.294,1.798
				c0.196-1.398,0.755-2.353,1.374-2.892c-4.802-0.547-9.851-2.401-9.851-10.688c0-2.361,0.843-4.29,2.225-5.802
				c-0.222-0.548-0.965-2.746,0.213-5.725c0,0,1.814-0.582,5.947,2.217c1.726-0.479,3.574-0.72,5.413-0.727
				c1.837,0.007,3.686,0.247,5.414,0.727c4.13-2.799,5.942-2.217,5.942-2.217c1.18,2.979,0.437,5.177,0.215,5.725
				c1.385,1.512,2.223,3.44,2.223,5.802c0,8.309-5.057,10.136-9.874,10.67c0.776,0.67,1.467,1.989,1.467,4.007
				c0,1.6-0.008,7.088-0.015,10.9c5.169-1.183,9.701-4.031,13.001-7.955C45.883,86.262,48,80.881,48,75C48,61.745,37.255,51,24,51z"
				/>
		</g>
	</g>
	<path class="st45" d="M48,27c0-0.504-0.021-1.004-0.051-1.5c-0.084,1.348-0.279,2.663-0.576,3.941
		c-0.317,1.369-0.747,2.695-1.287,3.965C43.112,40.379,36.934,45.657,29.4,47.39h0.1v2.97C40.104,47.873,48,38.362,48,27z"/>
	<path class="st45" d="M18.6,47.39c-7.534-1.732-13.713-7.011-16.686-13.984c-0.54-1.269-0.97-2.595-1.287-3.964
		C0.33,28.163,0.135,26.848,0.052,25.5C0.021,25.996,0,26.496,0,27c0,11.362,7.896,20.873,18.5,23.359v-2.97H18.6z"/>
</g>
</svg>
