<?xml version="1.0" encoding="utf-8"?>
<!-- Generator: Adobe Illustrator 16.0.4, SVG Export Plug-In . SVG Version: 6.00 Build 0)  -->
<!DOCTYPE svg PUBLIC "-//W3C//DTD SVG 1.1//EN" "http://www.w3.org/Graphics/SVG/1.1/DTD/svg11.dtd">
<svg version="1.1" xmlns="http://www.w3.org/2000/svg" xmlns:xlink="http://www.w3.org/1999/xlink" x="0px" y="0px" width="48px"
	 height="102px" viewBox="0 0 48 102" style="enable-background:new 0 0 48 102;" xml:space="preserve">
<style type="text/css">
<![CDATA[
	.st0{display:inline;fill:#E8C95A;}
	.st1{fill-rule:evenodd;clip-rule:evenodd;fill:#71117E;}
	.st2{fill:#12A8A5;}
	.st3{fill:#E29A4C;}
	.st4{fill:#E3A730;}
	.st5{fill:#E3F2BF;}
	.st6{fill:#E4F0D7;}
	.st7{fill:#E55F7C;}
	.st8{opacity:0.5;fill:#55ACEE;}
	.st9{fill:#E6E6E6;}
	.st10{fill:#198583;}
	.st11{fill-rule:evenodd;clip-rule:evenodd;fill:none;}
	.st12{fill:#E8C95A;}
	.st13{opacity:0.5;fill:#BC112A;}
	.st14{opacity:0.15;}
	.st15{opacity:0.25;}
	.st16{opacity:0.35;}
	.st17{opacity:0.5;fill:none;stroke:#F3695A;stroke-miterlimit:10;}
	.st18{opacity:0.5;fill:#F3695A;}
	.st19{fill:#EAAF56;}
	.st20{fill:#EB9A2D;}
	.st21{fill:#EBB060;}
	.st22{fill:#EDA44C;}
	.st23{fill:#534E58;}
	.st24{display:inline;fill:#F3695A;}
	.st25{fill:#55ACEE;}
	.st26{opacity:0.2;fill:#EDA44C;stroke:#362B3C;stroke-miterlimit:10;}
	.st27{fill:#575757;}
	.st28{display:inline;fill:none;stroke:#3E5054;stroke-width:1.2;stroke-miterlimit:10;}
	.st29{fill:#58504E;}
	.st30{fill:#8C652F;}
	.st31{fill:#BC112A;}
	.st32{fill:#BD081C;}
	.st33{fill:#8E8A75;}
	.st34{fill:#BEBEBF;}
	.st35{fill:#BF1B3A;}
	.st36{fill:#F19D39;}
	.st37{fill:#238D83;}
	.st38{fill:#F2C549;}
	.st39{fill:#F3695A;}
	.st40{fill:#299488;}
	.st41{display:inline;fill:#999999;}
	.st42{display:inline;fill:#FCC457;}
	.st43{fill:#F9B4AC;}
	.st44{fill-rule:evenodd;clip-rule:evenodd;fill:#EDA44C;}
	.st45{opacity:0.5;fill:#9D47B2;}
	.st46{fill:#C1DA84;}
	.st47{display:inline;fill:#FFFFFF;}
	.st48{fill:#C2BAC4;}
	.st49{fill:#2B8F83;}
	.st50{fill:#FBAB01;}
	.st51{fill:#999999;}
	.st52{fill:#FCC457;}
	.st53{fill:none;stroke:#EB9A2D;stroke-width:2;stroke-linecap:round;stroke-linejoin:round;stroke-miterlimit:10;}
	.st54{opacity:0.2;fill:#9D47B2;}
	.st55{fill-rule:evenodd;clip-rule:evenodd;}
	.st56{display:inline;fill:#CCCCCC;}
	.st57{opacity:0.2;}
	.st58{opacity:0.3;}
	.st59{opacity:0.4;}
	.st60{opacity:0.5;}
	.st61{opacity:0.6;}
	.st62{fill:#615957;}
	.st63{fill:#FFDD8B;}
	.st64{fill:#FFFFFF;}
	.st65{display:inline;fill:#333333;}
	.st66{fill:none;}
	.st67{display:inline;fill:#362B3C;}
	.st68{fill:none;stroke:#3E5054;stroke-width:1.2;stroke-linecap:round;stroke-linejoin:round;stroke-miterlimit:10;}
	.st69{fill:#9D47B2;}
	.st70{fill:#CCCCCC;}
	.st71{display:inline;}
	.st72{opacity:0.5;fill:#0873B2;}
	.st73{fill:#333333;}
	.st74{display:inline;fill:none;}
	.st75{fill:#362B3C;}
	.st76{opacity:0.6;fill:#EDA44C;}
	.st77{display:inline;fill:#3E5054;}
	.st78{fill-rule:evenodd;clip-rule:evenodd;fill:#643C6B;}
	.st79{fill:#0873B2;}
	.st80{fill-rule:evenodd;clip-rule:evenodd;fill:#9D47B2;}
	.st81{fill:#3E5054;}
	.st82{fill:none;stroke:#EB9A2D;stroke-width:1.6;stroke-miterlimit:10;}
	.st83{fill:#71117E;}
	.st84{display:none;}
	.st85{fill:#75685E;}
	.st86{fill-rule:evenodd;clip-rule:evenodd;fill:#362B3C;}
	.st87{fill:#DADBD0;}
	.st88{fill:#0D8072;}
	.st89{fill:#40413B;}
	.st90{opacity:0.5;fill:none;stroke:#362B3C;stroke-miterlimit:10;}
	.st91{fill:#45D7B0;}
]]>
</style>
<g id="Desc">
	<path class="st76" d="M47.949,25.5c-0.084,1.348-0.279,2.663-0.576,3.941c-0.317,1.369-0.747,2.695-1.287,3.965
		C42.427,41.985,33.917,48,24,48S5.572,41.985,1.914,33.405c-0.54-1.269-0.97-2.595-1.287-3.964
		C0.33,28.163,0.135,26.848,0.052,25.5C0.021,25.996,0,26.496,0,27c0,13.256,10.744,24,24,24s24-10.744,24-24
		C48,26.496,47.979,25.996,47.949,25.5z"/>
	<g>
		<path class="st22" d="M24,47.5C11.042,47.5,0.5,36.958,0.5,24S11.042,0.5,24,0.5S47.5,11.042,47.5,24S36.958,47.5,24,47.5z
			 M12.5,33c0,0.827,0.673,1.5,1.5,1.5h20c0.827,0,1.5-0.673,1.5-1.5V20.158L24,26.431l-11.5-6.272V33z M14,13.5
			c-0.827,0-1.5,0.673-1.5,1.5v2.297L24,23.569l11.5-6.272V15c0-0.827-0.673-1.5-1.5-1.5H14z"/>
		<path class="st75" d="M24,1c12.682,0,23,10.318,23,23S36.682,47,24,47S1,36.682,1,24S11.318,1,24,1 M24,24.139l0.479-0.261l11-6
			L36,17.594V17v-2c0-1.103-0.897-2-2-2H14c-1.103,0-2,0.897-2,2v2v0.594l0.521,0.284l11,6L24,24.139 M24,25.861l-10.521-5.739
			L12,19.315V21v12c0,1.103,0.897,2,2,2h20c1.103,0,2-0.897,2-2V21v-1.685l-1.479,0.807L24,25.861 M24,0C10.745,0,0,10.745,0,24
			s10.745,24,24,24s24-10.745,24-24S37.255,0,24,0L24,0z M24,23l-11-6v-2c0-0.55,0.45-1,1-1h20c0.55,0,1,0.45,1,1v2L24,23L24,23z
			 M24,27l11-6v12c0,0.55-0.45,1-1,1H14c-0.55,0-1-0.45-1-1V21L24,27L24,27z"/>
	</g>
	<g>
		<g class="st61">
			<path class="st22" d="M24,54C10.745,54,0,64.745,0,78s10.745,24,24,24s24-10.745,24-24S37.255,54,24,54z M35,87
				c0,0.55-0.45,1-1,1H14c-0.55,0-1-0.45-1-1V75l11,6l11-6V87z M35,71l-11,6l-11-6v-2c0-0.55,0.45-1,1-1h20c0.55,0,1,0.45,1,1V71z"
				/>
		</g>
		<g>
			<path class="st75" d="M24,51C10.745,51,0,61.745,0,75s10.745,24,24,24s24-10.745,24-24S37.255,51,24,51z M35,84
					c0,0.55-0.45,1-1,1H14c-0.55,0-1-0.45-1-1V72l11,6l11-6V84z M35,68l-11,6l-11-6v-2c0-0.55,0.45-1,1-1h20c0.55,0,1,0.45,1,1V68z"
					/>
		</g>
	</g>
	<rect id="_x3C_Slice_x3E__4_" class="st66" width="48" height="102"/>
</g>
</svg>
