<?xml version="1.0" encoding="utf-8"?>
<!-- Generator: Adobe Illustrator 16.0.4, SVG Export Plug-In . SVG Version: 6.00 Build 0)  -->
<!DOCTYPE svg PUBLIC "-//W3C//DTD SVG 1.1//EN" "http://www.w3.org/Graphics/SVG/1.1/DTD/svg11.dtd">
<svg version="1.1" xmlns="http://www.w3.org/2000/svg" xmlns:xlink="http://www.w3.org/1999/xlink" x="0px" y="0px" width="48px"
	 height="102px" viewBox="0 0 48 102" style="enable-background:new 0 0 48 102;" xml:space="preserve">
<style type="text/css">
<![CDATA[
	.st0{display:inline;fill:#E8C95A;}
	.st1{fill-rule:evenodd;clip-rule:evenodd;fill:#71117E;}
	.st2{fill:#12A8A5;}
	.st3{fill:#E29A4C;}
	.st4{fill:#E3A730;}
	.st5{fill:#E3F2BF;}
	.st6{fill:#E4F0D7;}
	.st7{fill:#E55F7C;}
	.st8{opacity:0.5;fill:#55ACEE;}
	.st9{fill:#E6E6E6;}
	.st10{fill:#198583;}
	.st11{fill-rule:evenodd;clip-rule:evenodd;fill:none;}
	.st12{fill:#E8C95A;}
	.st13{opacity:0.5;fill:#BC112A;}
	.st14{opacity:0.15;}
	.st15{opacity:0.25;}
	.st16{opacity:0.35;}
	.st17{opacity:0.5;fill:none;stroke:#F3695A;stroke-miterlimit:10;}
	.st18{opacity:0.5;fill:#F3695A;}
	.st19{fill:#EAAF56;}
	.st20{fill:#EB9A2D;}
	.st21{fill:#EBB060;}
	.st22{fill:#EDA44C;}
	.st23{fill:#534E58;}
	.st24{display:inline;fill:#F3695A;}
	.st25{fill:#55ACEE;}
	.st26{opacity:0.2;fill:#EDA44C;stroke:#362B3C;stroke-miterlimit:10;}
	.st27{fill:#575757;}
	.st28{display:inline;fill:none;stroke:#3E5054;stroke-width:1.2;stroke-miterlimit:10;}
	.st29{fill:#58504E;}
	.st30{fill:#8C652F;}
	.st31{fill:#BC112A;}
	.st32{fill:#BD081C;}
	.st33{fill:#8E8A75;}
	.st34{fill:#BEBEBF;}
	.st35{fill:#BF1B3A;}
	.st36{fill:#F19D39;}
	.st37{fill:#238D83;}
	.st38{fill:#F2C549;}
	.st39{fill:#F3695A;}
	.st40{fill:#299488;}
	.st41{display:inline;fill:#999999;}
	.st42{display:inline;fill:#FCC457;}
	.st43{fill:#F9B4AC;}
	.st44{fill-rule:evenodd;clip-rule:evenodd;fill:#EDA44C;}
	.st45{opacity:0.5;fill:#9D47B2;}
	.st46{fill:#C1DA84;}
	.st47{display:inline;fill:#FFFFFF;}
	.st48{fill:#C2BAC4;}
	.st49{fill:#2B8F83;}
	.st50{fill:#FBAB01;}
	.st51{fill:#999999;}
	.st52{fill:#FCC457;}
	.st53{fill:none;stroke:#EB9A2D;stroke-width:2;stroke-linecap:round;stroke-linejoin:round;stroke-miterlimit:10;}
	.st54{opacity:0.2;fill:#9D47B2;}
	.st55{fill-rule:evenodd;clip-rule:evenodd;}
	.st56{display:inline;fill:#CCCCCC;}
	.st57{opacity:0.2;}
	.st58{opacity:0.3;}
	.st59{opacity:0.4;}
	.st60{opacity:0.5;}
	.st61{opacity:0.6;}
	.st62{fill:#615957;}
	.st63{fill:#FFDD8B;}
	.st64{fill:#FFFFFF;}
	.st65{display:inline;fill:#333333;}
	.st66{fill:none;}
	.st67{display:inline;fill:#362B3C;}
	.st68{fill:none;stroke:#3E5054;stroke-width:1.2;stroke-linecap:round;stroke-linejoin:round;stroke-miterlimit:10;}
	.st69{fill:#9D47B2;}
	.st70{fill:#CCCCCC;}
	.st71{display:inline;}
	.st72{opacity:0.5;fill:#0873B2;}
	.st73{fill:#333333;}
	.st74{display:inline;fill:none;}
	.st75{fill:#362B3C;}
	.st76{opacity:0.6;fill:#EDA44C;}
	.st77{display:inline;fill:#3E5054;}
	.st78{fill-rule:evenodd;clip-rule:evenodd;fill:#643C6B;}
	.st79{fill:#0873B2;}
	.st80{fill-rule:evenodd;clip-rule:evenodd;fill:#9D47B2;}
	.st81{fill:#3E5054;}
	.st82{fill:none;stroke:#EB9A2D;stroke-width:1.6;stroke-miterlimit:10;}
	.st83{fill:#71117E;}
	.st84{display:none;}
	.st85{fill:#75685E;}
	.st86{fill-rule:evenodd;clip-rule:evenodd;fill:#362B3C;}
	.st87{fill:#DADBD0;}
	.st88{fill:#0D8072;}
	.st89{fill:#40413B;}
	.st90{opacity:0.5;fill:none;stroke:#362B3C;stroke-miterlimit:10;}
	.st91{fill:#45D7B0;}
]]>
</style>
<g id="Desc">
	<g>
		<g class="st60">
			<path class="st32" d="M24,54C10.745,54,0,64.745,0,78c0,10.168,6.326,18.852,15.254,22.349c-0.21-1.898-0.399-4.812,0.083-6.885
				c0.436-1.873,2.814-11.93,2.814-11.93s-0.718-1.438-0.718-3.563c0-3.336,1.934-5.828,4.342-5.828
				c2.048,0,3.037,1.537,3.037,3.381c0,2.059-1.311,5.138-1.987,7.99c-0.565,2.39,1.198,4.338,3.554,4.338
				c4.266,0,7.545-4.498,7.545-10.99c0-5.746-4.129-9.765-10.025-9.765c-6.828,0-10.837,5.122-10.837,10.415
				c0,2.063,0.795,4.275,1.786,5.478c0.196,0.237,0.225,0.446,0.166,0.688c-0.182,0.758-0.587,2.389-0.666,2.722
				c-0.104,0.439-0.348,0.532-0.803,0.321c-2.998-1.396-4.872-5.778-4.872-9.298c0-7.571,5.501-14.523,15.858-14.523
				c8.325,0,14.795,5.933,14.795,13.861c0,8.271-5.215,14.928-12.453,14.928c-2.433,0-4.719-1.264-5.501-2.756
				c0,0-1.203,4.583-1.495,5.705c-0.542,2.085-2.005,4.698-2.983,6.292C19.14,101.625,21.526,102,24,102c13.255,0,24-10.745,24-24
				S37.255,54,24,54z"/>
		</g>
		<g>
			<path class="st75" d="M24,51C10.745,51,0,61.745,0,75c0,10.168,6.326,18.852,15.254,22.349c-0.21-1.898-0.399-4.812,0.083-6.885
					c0.436-1.873,2.814-11.93,2.814-11.93s-0.718-1.438-0.718-3.563c0-3.336,1.934-5.828,4.342-5.828
					c2.048,0,3.037,1.537,3.037,3.381c0,2.059-1.311,5.138-1.987,7.99c-0.565,2.39,1.198,4.338,3.554,4.338
					c4.266,0,7.545-4.498,7.545-10.99c0-5.746-4.129-9.765-10.025-9.765c-6.828,0-10.837,5.122-10.837,10.415
					c0,2.063,0.795,4.275,1.786,5.478c0.196,0.237,0.225,0.446,0.166,0.688c-0.182,0.758-0.587,2.389-0.666,2.722
					c-0.104,0.439-0.348,0.532-0.803,0.321c-2.998-1.396-4.872-5.778-4.872-9.298c0-7.571,5.501-14.523,15.858-14.523
					c8.325,0,14.795,5.933,14.795,13.861c0,8.271-5.215,14.928-12.453,14.928c-2.433,0-4.719-1.264-5.501-2.756
					c0,0-1.203,4.583-1.495,5.705c-0.542,2.085-2.005,4.698-2.983,6.292C19.14,98.625,21.526,99,24,99c13.255,0,24-10.745,24-24
					S37.255,51,24,51z"/>
		</g>
	</g>
	<rect id="_x3C_Slice_x3E__2_" class="st11" width="48" height="102"/>
	<g>
		<g>
			<path class="st31" d="M24,47.5c-2.155,0-4.286-0.291-6.344-0.867c0.906-1.524,2.194-3.904,2.705-5.869
				c0.204-0.785,0.854-3.267,1.227-4.685c1.182,1.263,3.225,2.109,5.285,2.109c7.385,0,12.953-6.633,12.953-15.428
				c0-8.188-6.575-14.361-15.295-14.361c-11.239,0-16.358,7.788-16.358,15.023c0,3.612,1.931,8.247,5.161,9.751
				c0.225,0.104,0.422,0.155,0.604,0.155c0.212,0,0.722-0.08,0.896-0.814c0,0,0.562-2.29,0.666-2.721
				c0.101-0.416,0.014-0.784-0.267-1.123c-0.984-1.193-1.672-3.315-1.672-5.159c0-4.807,3.623-9.915,10.337-9.915
				c5.608,0,9.525,3.81,9.525,9.265c0,6.078-2.963,10.49-7.045,10.49c-1.033,0-1.963-0.426-2.55-1.169
				c-0.557-0.703-0.74-1.61-0.518-2.554c0.241-1.015,0.567-2.071,0.882-3.092c0.576-1.864,1.119-3.624,1.119-5.014
				c0-2.357-1.389-3.881-3.537-3.881c-2.715,0-4.842,2.779-4.842,6.328c0,1.815,0.495,3.153,0.692,3.614
				c-0.311,1.313-2.373,10.034-2.776,11.766c-0.426,1.831-0.353,4.262-0.177,6.219C6.035,41.842,0.5,33.464,0.5,24
				C0.5,11.042,11.042,0.5,24,0.5S47.5,11.042,47.5,24S36.958,47.5,24,47.5z"/>
			<path class="st75" d="M24,1c12.683,0,23,10.318,23,23S36.683,47,24,47c-1.892,0-3.763-0.229-5.58-0.682
				c0.88-1.536,1.96-3.641,2.425-5.429c0.17-0.652,0.647-2.476,1.019-3.888c1.3,1.031,3.151,1.687,5.01,1.687
				c7.67,0,13.453-6.848,13.453-15.928c0-8.473-6.79-14.861-15.795-14.861c-11.583,0-16.858,8.047-16.858,15.523
				c0,3.717,1.91,8.557,5.451,10.205c0.292,0.136,0.558,0.201,0.813,0.201c0.258,0,1.119-0.087,1.383-1.198
				c0.034-0.144,0.129-0.528,0.24-0.979c0.146-0.598,0.322-1.31,0.425-1.738c0.139-0.573,0.016-1.099-0.366-1.56
				c-0.774-0.939-1.558-2.903-1.558-4.842c0-2.415,0.94-4.785,2.581-6.502c1.821-1.905,4.33-2.913,7.256-2.913
				c5.314,0,9.025,3.604,9.025,8.765c0,5.789-2.753,9.99-6.545,9.99c-0.879,0-1.666-0.356-2.158-0.979
				c-0.459-0.582-0.609-1.338-0.423-2.129c0.237-0.999,0.561-2.047,0.874-3.06c0.586-1.901,1.141-3.696,1.141-5.161
				c0-2.62-1.622-4.381-4.037-4.381c-2.995,0-5.342,2.999-5.342,6.828c0,1.723,0.43,3.05,0.669,3.654
				c-0.409,1.731-2.351,9.938-2.739,11.612c-0.38,1.632-0.378,3.707-0.255,5.527C6.093,40.961,1,32.98,1,24C1,11.318,11.317,1,24,1
				 M24,0C10.745,0,0,10.745,0,24c0,10.168,6.326,18.852,15.254,22.349c-0.21-1.898-0.399-4.812,0.083-6.885
				c0.436-1.873,2.814-11.93,2.814-11.93s-0.718-1.438-0.718-3.563c0-3.336,1.934-5.828,4.342-5.828
				c2.048,0,3.037,1.537,3.037,3.381c0,2.059-1.311,5.138-1.987,7.99c-0.565,2.39,1.198,4.338,3.554,4.338
				c4.266,0,7.545-4.498,7.545-10.99c0-5.746-4.129-9.765-10.025-9.765c-6.828,0-10.837,5.122-10.837,10.415
				c0,2.063,0.795,4.275,1.786,5.478c0.196,0.237,0.225,0.446,0.166,0.688c-0.182,0.758-0.587,2.389-0.666,2.722
				c-0.069,0.29-0.199,0.43-0.41,0.43c-0.108,0-0.238-0.037-0.393-0.108c-2.998-1.396-4.872-5.778-4.872-9.298
				c0-7.571,5.501-14.523,15.858-14.523c8.325,0,14.795,5.933,14.795,13.861c0,8.271-5.215,14.928-12.453,14.928
				c-2.433,0-4.719-1.264-5.501-2.756c0,0-1.203,4.583-1.495,5.705c-0.542,2.085-2.005,4.698-2.983,6.292
				C19.14,47.625,21.526,48,24,48c13.255,0,24-10.745,24-24S37.255,0,24,0L24,0z"/>
		</g>
		<path class="st13" d="M1.914,33.405c-0.54-1.269-0.97-2.595-1.287-3.964C0.33,28.163,0.135,26.848,0.052,25.5
			C0.021,25.996,0,26.496,0,27c0,9.909,6.005,18.413,14.574,22.076l-0.05-3.037C8.869,43.604,4.33,39.071,1.914,33.405z"/>
		<path class="st13" d="M47.949,25.5c-0.084,1.348-0.279,2.663-0.576,3.941c-0.317,1.369-0.747,2.695-1.287,3.965
			C42.427,41.985,33.917,48,24,48c-2.224,0-4.371-0.317-6.414-0.883l-1.024,2.702C18.904,50.582,21.402,51,24,51
			c13.256,0,24-10.744,24-24C48,26.496,47.979,25.996,47.949,25.5z"/>
	</g>
</g>
</svg>
