<?xml version="1.0" encoding="utf-8"?>
<!-- Generator: Adobe Illustrator 16.0.4, SVG Export Plug-In . SVG Version: 6.00 Build 0)  -->
<!DOCTYPE svg PUBLIC "-//W3C//DTD SVG 1.1//EN" "http://www.w3.org/Graphics/SVG/1.1/DTD/svg11.dtd">
<svg version="1.1" xmlns="http://www.w3.org/2000/svg" xmlns:xlink="http://www.w3.org/1999/xlink" x="0px" y="0px" width="48px"
	 height="102px" viewBox="0 0 48 102" style="enable-background:new 0 0 48 102;" xml:space="preserve">
<style type="text/css">
<![CDATA[
	.st0{display:inline;fill:#E8C95A;}
	.st1{fill-rule:evenodd;clip-rule:evenodd;fill:#71117E;}
	.st2{fill:#12A8A5;}
	.st3{fill:#E29A4C;}
	.st4{fill:#E3A730;}
	.st5{fill:#E3F2BF;}
	.st6{fill:#E4F0D7;}
	.st7{fill:#E55F7C;}
	.st8{opacity:0.5;fill:#55ACEE;}
	.st9{fill:#E6E6E6;}
	.st10{fill:#198583;}
	.st11{fill-rule:evenodd;clip-rule:evenodd;fill:none;}
	.st12{fill:#E8C95A;}
	.st13{opacity:0.5;fill:#BC112A;}
	.st14{opacity:0.15;}
	.st15{opacity:0.25;}
	.st16{opacity:0.35;}
	.st17{opacity:0.5;fill:none;stroke:#F3695A;stroke-miterlimit:10;}
	.st18{opacity:0.5;fill:#F3695A;}
	.st19{fill:#EAAF56;}
	.st20{fill:#EB9A2D;}
	.st21{fill:#EBB060;}
	.st22{fill:#EDA44C;}
	.st23{fill:#534E58;}
	.st24{display:inline;fill:#F3695A;}
	.st25{fill:#55ACEE;}
	.st26{opacity:0.2;fill:#EDA44C;stroke:#362B3C;stroke-miterlimit:10;}
	.st27{fill:#575757;}
	.st28{display:inline;fill:none;stroke:#3E5054;stroke-width:1.2;stroke-miterlimit:10;}
	.st29{fill:#58504E;}
	.st30{fill:#8C652F;}
	.st31{fill:#BC112A;}
	.st32{fill:#BD081C;}
	.st33{fill:#8E8A75;}
	.st34{fill:#BEBEBF;}
	.st35{fill:#BF1B3A;}
	.st36{fill:#F19D39;}
	.st37{fill:#238D83;}
	.st38{fill:#F2C549;}
	.st39{fill:#F3695A;}
	.st40{fill:#299488;}
	.st41{display:inline;fill:#999999;}
	.st42{display:inline;fill:#FCC457;}
	.st43{fill:#F9B4AC;}
	.st44{fill-rule:evenodd;clip-rule:evenodd;fill:#EDA44C;}
	.st45{opacity:0.5;fill:#9D47B2;}
	.st46{fill:#C1DA84;}
	.st47{display:inline;fill:#FFFFFF;}
	.st48{fill:#C2BAC4;}
	.st49{fill:#2B8F83;}
	.st50{fill:#FBAB01;}
	.st51{fill:#999999;}
	.st52{fill:#FCC457;}
	.st53{fill:none;stroke:#EB9A2D;stroke-width:2;stroke-linecap:round;stroke-linejoin:round;stroke-miterlimit:10;}
	.st54{opacity:0.2;fill:#9D47B2;}
	.st55{fill-rule:evenodd;clip-rule:evenodd;}
	.st56{display:inline;fill:#CCCCCC;}
	.st57{opacity:0.2;}
	.st58{opacity:0.3;}
	.st59{opacity:0.4;}
	.st60{opacity:0.5;}
	.st61{opacity:0.6;}
	.st62{fill:#615957;}
	.st63{fill:#FFDD8B;}
	.st64{fill:#FFFFFF;}
	.st65{display:inline;fill:#333333;}
	.st66{fill:none;}
	.st67{display:inline;fill:#362B3C;}
	.st68{fill:none;stroke:#3E5054;stroke-width:1.2;stroke-linecap:round;stroke-linejoin:round;stroke-miterlimit:10;}
	.st69{fill:#9D47B2;}
	.st70{fill:#CCCCCC;}
	.st71{display:inline;}
	.st72{opacity:0.5;fill:#0873B2;}
	.st73{fill:#333333;}
	.st74{display:inline;fill:none;}
	.st75{fill:#362B3C;}
	.st76{opacity:0.6;fill:#EDA44C;}
	.st77{display:inline;fill:#3E5054;}
	.st78{fill-rule:evenodd;clip-rule:evenodd;fill:#643C6B;}
	.st79{fill:#0873B2;}
	.st80{fill-rule:evenodd;clip-rule:evenodd;fill:#9D47B2;}
	.st81{fill:#3E5054;}
	.st82{fill:none;stroke:#EB9A2D;stroke-width:1.6;stroke-miterlimit:10;}
	.st83{fill:#71117E;}
	.st84{display:none;}
	.st85{fill:#75685E;}
	.st86{fill-rule:evenodd;clip-rule:evenodd;fill:#362B3C;}
	.st87{fill:#DADBD0;}
	.st88{fill:#0D8072;}
	.st89{fill:#40413B;}
	.st90{opacity:0.5;fill:none;stroke:#362B3C;stroke-miterlimit:10;}
	.st91{fill:#45D7B0;}
]]>
</style>
<g id="Desc">
	<rect id="_x3C_Slice_x3E__3_" class="st11" width="48" height="102"/>
	<g>
		<path class="st25" d="M24,47.5C11.042,47.5,0.5,36.958,0.5,24S11.042,0.5,24,0.5S47.5,11.042,47.5,24S36.958,47.5,24,47.5z
			 M10.729,33.836c2.711,1.742,5.85,2.663,9.076,2.663c10.543,0,16.843-8.563,16.843-16.842c0-0.166-0.003-0.332-0.007-0.496
			c1.085-0.821,2.018-1.811,2.774-2.944l0.957-1.435l-1.576,0.7c-0.418,0.186-0.847,0.345-1.284,0.477
			c0.531-0.624,0.938-1.35,1.189-2.14l0.399-1.254l-1.131,0.672c-0.995,0.591-2.079,1.02-3.226,1.277
			c-1.165-1.128-2.737-1.77-4.358-1.77c-3.443,0-6.245,2.801-6.245,6.244c0,0.26,0.016,0.516,0.045,0.765
			c-4.226-0.382-8.151-2.463-10.847-5.771l-0.456-0.56l-0.363,0.623c-0.555,0.95-0.848,2.035-0.848,3.138
			c0,1.468,0.487,2.851,1.352,3.938c-0.251-0.092-0.521-0.202-0.825-0.333l-0.697-0.299v0.759c0,2.235,1.163,4.225,2.955,5.35
			c-0.077-0.012-0.155-0.025-0.236-0.041l-0.831-0.165l0.258,0.808c0.676,2.109,2.405,3.669,4.504,4.171
			c-1.738,1.071-3.714,1.632-5.782,1.632c-0.409,0-0.825-0.027-1.31-0.085l-2.161-0.26L10.729,33.836z"/>
		<path class="st75" d="M24,1c12.682,0,23,10.318,23,23S36.682,47,24,47S1,36.682,1,24S11.318,1,24,1 M34.889,13.967
			c-1.234-1.101-2.846-1.722-4.503-1.722c-3.72,0-6.745,3.025-6.745,6.744c0,0.067,0.001,0.136,0.003,0.202
			c-3.868-0.502-7.432-2.475-9.917-5.524l-0.912-1.118l-0.727,1.246c-0.6,1.026-0.916,2.199-0.916,3.39
			c0,1.021,0.219,2.005,0.626,2.891l-0.797-0.342v1.517v0.07c0,1.67,0.63,3.228,1.684,4.425l-0.03-0.006l0.517,1.614
			c0.604,1.888,1.989,3.367,3.736,4.128c-1.407,0.673-2.944,1.022-4.539,1.022c-0.389,0-0.786-0.025-1.25-0.082l-4.321-0.52
			l3.661,2.354c2.792,1.795,6.024,2.743,9.347,2.743c10.855,0,17.343-8.817,17.343-17.342c0-0.085-0.001-0.17-0.002-0.255
			c1.044-0.822,1.945-1.799,2.686-2.908l1.915-2.868l-2.965,1.315c0.156-0.311,0.289-0.635,0.396-0.971l0.8-2.508l-2.264,1.344
			C36.838,13.327,35.89,13.716,34.889,13.967 M24,0C10.744,0,0,10.745,0,24c0,13.256,10.744,24,24,24s24-10.744,24-24
			C48,10.745,37.256,0,24,0L24,0z M24.791,20.298c-0.101-0.415-0.15-0.857-0.15-1.309c0-3.172,2.572-5.744,5.745-5.744
			c1.654,0,3.145,0.701,4.194,1.815c1.307-0.262,2.536-0.735,3.645-1.394c-0.428,1.341-1.34,2.467-2.521,3.178
			c1.157-0.139,2.266-0.448,3.295-0.905c-0.771,1.154-1.743,2.163-2.865,2.975c0.008,0.245,0.014,0.494,0.014,0.743
			c0,7.589-5.772,16.342-16.343,16.342c-3.241,0-6.264-0.95-8.806-2.584c0.455,0.055,0.905,0.089,1.369,0.089
			c2.692,0,5.163-0.924,7.129-2.461c-2.514-0.051-4.643-1.709-5.374-3.994c0.351,0.069,0.693,0.107,1.067,0.107
			c0.523,0,0.998-0.073,1.48-0.203c-2.629-0.529-4.67-2.851-4.67-5.633c0-0.024,0-0.046,0-0.07c1,0.429,1.722,0.684,2.666,0.713
			c-1.544-1.027-2.495-2.786-2.495-4.778c0-1.051,0.284-2.037,0.779-2.886C15.783,17.774,20.015,20.059,24.791,20.298L24.791,20.298
			z"/>
	</g>
	<g>
		<g class="st60">
			<path class="st25" d="M24,54C10.744,54,0,64.745,0,78c0,13.256,10.744,24,24,24s24-10.744,24-24C48,64.745,37.256,54,24,54z
				 M36.134,72.914c0.008,0.245,0.014,0.494,0.014,0.743c0,7.589-5.772,16.342-16.343,16.342c-3.241,0-6.264-0.95-8.806-2.584
				c0.455,0.055,0.905,0.089,1.369,0.089c2.692,0,5.163-0.924,7.129-2.461c-2.514-0.051-4.643-1.709-5.374-3.994
				c0.351,0.069,0.693,0.107,1.067,0.107c0.523,0,0.998-0.073,1.48-0.203c-2.629-0.529-4.67-2.851-4.67-5.633
				c0-0.024,0-0.046,0-0.07c1,0.429,1.722,0.684,2.666,0.713c-1.544-1.027-2.495-2.786-2.495-4.778c0-1.051,0.284-2.037,0.779-2.886
				c2.832,3.476,7.063,5.76,11.84,5.999c-0.101-0.415-0.15-0.857-0.15-1.309c0-3.172,2.572-5.744,5.745-5.744
				c1.654,0,3.145,0.701,4.194,1.815c1.307-0.262,2.536-0.735,3.645-1.394c-0.428,1.341-1.34,2.467-2.521,3.178
				c1.157-0.139,2.266-0.448,3.295-0.905C38.229,71.094,37.256,72.103,36.134,72.914z"/>
		</g>
		<g>
			<path class="st75" d="M24,51C10.744,51,0,61.745,0,75c0,13.256,10.744,24,24,24s24-10.744,24-24C48,61.745,37.256,51,24,51z
				 M36.134,69.914c0.008,0.245,0.014,0.494,0.014,0.743c0,7.589-5.772,16.342-16.343,16.342c-3.241,0-6.264-0.95-8.806-2.584
				c0.455,0.055,0.905,0.089,1.369,0.089c2.692,0,5.163-0.924,7.129-2.461c-2.514-0.051-4.643-1.709-5.374-3.994
				c0.351,0.069,0.693,0.107,1.067,0.107c0.523,0,0.998-0.073,1.48-0.203c-2.629-0.529-4.67-2.851-4.67-5.633
				c0-0.024,0-0.046,0-0.07c1,0.429,1.722,0.684,2.666,0.713c-1.544-1.027-2.495-2.786-2.495-4.778
				c0-1.051,0.284-2.037,0.779-2.886c2.832,3.476,7.063,5.76,11.84,5.999c-0.101-0.415-0.15-0.857-0.15-1.309
				c0-3.172,2.572-5.744,5.745-5.744c1.654,0,3.145,0.701,4.194,1.815c1.307-0.262,2.536-0.735,3.645-1.394
				c-0.428,1.341-1.34,2.467-2.521,3.178c1.157-0.139,2.266-0.448,3.295-0.905C38.229,68.094,37.256,69.103,36.134,69.914z"/>
		</g>
	</g>
	<path class="st8" d="M47.949,25.5c-0.084,1.348-0.279,2.663-0.576,3.941c-0.317,1.369-0.747,2.695-1.287,3.965
		C42.427,41.985,33.917,48,24,48S5.572,41.985,1.914,33.405c-0.54-1.269-0.97-2.595-1.287-3.964
		C0.33,28.163,0.135,26.848,0.052,25.5C0.021,25.996,0,26.496,0,27c0,13.256,10.744,24,24,24s24-10.744,24-24
		C48,26.496,47.979,25.996,47.949,25.5z"/>
</g>
</svg>
