<?xml version="1.0" encoding="utf-8"?>
<!-- Generator: Adobe Illustrator 16.0.4, SVG Export Plug-In . SVG Version: 6.00 Build 0)  -->
<!DOCTYPE svg PUBLIC "-//W3C//DTD SVG 1.1//EN" "http://www.w3.org/Graphics/SVG/1.1/DTD/svg11.dtd" [
	<!ENTITY st0 "fill:#EDA44C;">
	<!ENTITY st1 "opacity:0.6;">
	<!ENTITY st2 "fill:#362B3C;">
	<!ENTITY st3 "opacity:0.6;fill:#EDA44C;">
]>
<svg version="1.1" id="Layer_1" xmlns="http://www.w3.org/2000/svg" xmlns:xlink="http://www.w3.org/1999/xlink" x="0px" y="0px"
	 width="48px" height="102px" viewBox="0 0 48 102" style="enable-background:new 0 0 48 102;" xml:space="preserve">
<path style="&st3;" d="M47.949,25.5c-0.084,1.348-0.279,2.663-0.576,3.941c-0.317,1.369-0.747,2.695-1.287,3.965
	C42.427,41.985,33.917,48,24,48S5.572,41.985,1.914,33.405c-0.54-1.269-0.97-2.595-1.287-3.964C0.33,28.163,0.135,26.848,0.052,25.5
	C0.021,25.996,0,26.496,0,27c0,13.256,10.744,24,24,24s24-10.744,24-24C48,26.496,47.979,25.996,47.949,25.5z"/>
<g>
	<path style="&st0;" d="M24,47.5C11.042,47.5,0.5,36.958,0.5,24S11.042,0.5,24,0.5S47.5,11.042,47.5,24S36.958,47.5,24,47.5z
		 M12.5,33c0,0.827,0.673,1.5,1.5,1.5h20c0.827,0,1.5-0.673,1.5-1.5V20.158L24,26.431l-11.5-6.273V33z M14,13.5
		c-0.827,0-1.5,0.673-1.5,1.5v2.297L24,23.569l11.5-6.272V15c0-0.827-0.673-1.5-1.5-1.5H14z"/>
	<path style="&st2;" d="M24,1c12.683,0,23,10.318,23,23S36.683,47,24,47C11.318,47,1,36.682,1,24S11.318,1,24,1 M24,24.139
		l0.479-0.261l11-6L36,17.594V17v-2c0-1.103-0.897-2-2-2H14c-1.103,0-2,0.897-2,2v2v0.594l0.521,0.284l11,6L24,24.139 M24,25.861
		l-10.521-5.739L12,19.315V21v12c0,1.103,0.897,2,2,2h20c1.103,0,2-0.897,2-2V21v-1.685l-1.479,0.807L24,25.861 M24,0
		C10.745,0,0,10.745,0,24s10.745,24,24,24s24-10.745,24-24S37.255,0,24,0L24,0z M24,23l-11-6v-2c0-0.55,0.45-1,1-1h20
		c0.55,0,1,0.45,1,1v2L24,23L24,23z M24,27l11-6v12c0,0.55-0.45,1-1,1H14c-0.55,0-1-0.45-1-1V21L24,27L24,27z"/>
</g>
<g>
	<g style="&st1;">
		<path style="&st0;" d="M24,54C10.745,54,0,64.745,0,78s10.745,24,24,24s24-10.745,24-24S37.255,54,24,54z M35,87
			c0,0.55-0.45,1-1,1H14c-0.55,0-1-0.45-1-1V75l11,6l11-6V87z M35,71l-11,6l-11-6v-2c0-0.55,0.45-1,1-1h20c0.55,0,1,0.45,1,1V71z"/>
	</g>
	<g>
		<path style="&st2;" d="M24,51C10.745,51,0,61.745,0,75s10.745,24,24,24s24-10.745,24-24S37.255,51,24,51z M35,84
			c0,0.55-0.45,1-1,1H14c-0.55,0-1-0.45-1-1V72l11,6l11-6V84z M35,68l-11,6l-11-6v-2c0-0.55,0.45-1,1-1h20c0.55,0,1,0.45,1,1V68z"/>
	</g>
</g>
</svg>
