<?xml version="1.0" encoding="utf-8"?>
<!-- Generator: Adobe Illustrator 16.0.4, SVG Export Plug-In . SVG Version: 6.00 Build 0)  -->
<!DOCTYPE svg PUBLIC "-//W3C//DTD SVG 1.1//EN" "http://www.w3.org/Graphics/SVG/1.1/DTD/svg11.dtd" [
	<!ENTITY st0 "opacity:0.5;fill:#BC112A;">
	<!ENTITY st1 "fill:#BC112A;">
	<!ENTITY st2 "fill:#BD081C;">
	<!ENTITY st3 "opacity:0.5;">
	<!ENTITY st4 "fill:#362B3C;">
]>
<svg version="1.1" id="Layer_1" xmlns="http://www.w3.org/2000/svg" xmlns:xlink="http://www.w3.org/1999/xlink" x="0px" y="0px"
	 width="48px" height="102px" viewBox="0 0 48 102" style="enable-background:new 0 0 48 102;" xml:space="preserve">
<g>
	<g style="&st3;">
		<path style="&st2;" d="M24,54C10.745,54,0,64.745,0,78c0,10.168,6.326,18.852,15.254,22.349c-0.21-1.898-0.399-4.812,0.083-6.885
			c0.436-1.873,2.814-11.93,2.814-11.93s-0.718-1.438-0.718-3.563c0-3.336,1.934-5.828,4.342-5.828c2.048,0,3.037,1.537,3.037,3.381
			c0,2.059-1.311,5.138-1.987,7.99c-0.565,2.39,1.198,4.338,3.554,4.338c4.266,0,7.545-4.498,7.545-10.99
			c0-5.746-4.129-9.765-10.025-9.765c-6.828,0-10.837,5.122-10.837,10.415c0,2.063,0.795,4.275,1.786,5.478
			c0.196,0.237,0.225,0.446,0.166,0.688c-0.182,0.758-0.587,2.389-0.666,2.722c-0.104,0.439-0.348,0.532-0.803,0.321
			c-2.998-1.396-4.872-5.778-4.872-9.298c0-7.571,5.501-14.523,15.858-14.523c8.325,0,14.795,5.933,14.795,13.861
			c0,8.271-5.215,14.928-12.453,14.928c-2.433,0-4.719-1.264-5.501-2.756c0,0-1.203,4.583-1.495,5.705
			c-0.542,2.085-2.005,4.698-2.983,6.292C19.14,101.625,21.526,102,24,102c13.255,0,24-10.745,24-24S37.255,54,24,54z"/>
	</g>
	<g>
		<path style="&st4;" d="M24,51C10.745,51,0,61.745,0,75c0,10.168,6.326,18.852,15.254,22.349c-0.21-1.898-0.399-4.812,0.083-6.885
			c0.436-1.873,2.814-11.93,2.814-11.93s-0.718-1.438-0.718-3.563c0-3.336,1.934-5.828,4.342-5.828c2.048,0,3.037,1.537,3.037,3.381
			c0,2.059-1.311,5.138-1.987,7.99c-0.565,2.39,1.198,4.338,3.554,4.338c4.266,0,7.545-4.498,7.545-10.99
			c0-5.746-4.129-9.765-10.025-9.765c-6.828,0-10.837,5.122-10.837,10.415c0,2.063,0.795,4.275,1.786,5.478
			c0.196,0.237,0.225,0.446,0.166,0.688c-0.182,0.758-0.587,2.389-0.666,2.722c-0.104,0.439-0.348,0.532-0.803,0.321
			c-2.998-1.396-4.872-5.778-4.872-9.298c0-7.571,5.501-14.523,15.858-14.523c8.325,0,14.795,5.933,14.795,13.861
			c0,8.271-5.215,14.928-12.453,14.928c-2.433,0-4.719-1.264-5.501-2.756c0,0-1.203,4.583-1.495,5.705
			c-0.542,2.085-2.005,4.698-2.983,6.292C19.14,98.625,21.526,99,24,99c13.255,0,24-10.745,24-24S37.255,51,24,51z"/>
	</g>
</g>
<g>
	<g>
		<g>
			<path style="&st1;" d="M24,47.5c-2.155,0-4.286-0.292-6.343-0.867c0.905-1.525,2.193-3.905,2.704-5.87
				c0.205-0.786,0.855-3.267,1.227-4.685c1.182,1.263,3.225,2.109,5.285,2.109c7.385,0,12.953-6.632,12.953-15.428
				c0-8.188-6.575-14.361-15.295-14.361c-11.239,0-16.358,7.788-16.358,15.023c0,3.612,1.931,8.248,5.161,9.751
				c0.225,0.104,0.422,0.155,0.604,0.155c0.211,0,0.722-0.079,0.896-0.813c0,0,0.563-2.291,0.666-2.721
				c0.101-0.417,0.014-0.785-0.267-1.124c-0.984-1.193-1.671-3.315-1.671-5.159c0-4.807,3.623-9.915,10.337-9.915
				c5.608,0,9.525,3.81,9.525,9.265c0,6.079-2.963,10.49-7.045,10.49c-1.033,0-1.962-0.426-2.55-1.168
				c-0.557-0.704-0.741-1.611-0.518-2.554c0.241-1.015,0.567-2.071,0.882-3.092c0.575-1.863,1.119-3.624,1.119-5.013
				c0-2.357-1.388-3.881-3.537-3.881c-2.715,0-4.842,2.78-4.842,6.328c0,1.815,0.495,3.154,0.692,3.614
				c-0.311,1.313-2.373,10.035-2.775,11.766c-0.426,1.831-0.353,4.262-0.177,6.218C6.036,41.841,0.5,33.463,0.5,24
				C0.5,11.042,11.042,0.5,24,0.5S47.5,11.042,47.5,24S36.958,47.5,24,47.5z"/>
			<path style="&st4;" d="M24,1c12.683,0,23,10.318,23,23S36.683,47,24,47c-1.891,0-3.763-0.229-5.581-0.682
				c0.88-1.536,1.96-3.641,2.425-5.428c0.17-0.653,0.648-2.476,1.018-3.887c1.3,1.03,3.152,1.686,5.01,1.686
				c7.67,0,13.453-6.848,13.453-15.928c0-8.472-6.79-14.861-15.795-14.861c-11.583,0-16.858,8.047-16.858,15.523
				c0,3.717,1.91,8.557,5.452,10.205c0.292,0.135,0.558,0.201,0.813,0.201c0.258,0,1.119-0.086,1.383-1.198
				c0.034-0.143,0.128-0.528,0.24-0.979c0.147-0.597,0.322-1.31,0.425-1.738c0.139-0.574,0.015-1.099-0.367-1.56
				c-0.774-0.939-1.558-2.903-1.558-4.841c0-2.415,0.941-4.785,2.581-6.501c1.821-1.906,4.33-2.914,7.256-2.914
				c5.314,0,9.025,3.604,9.025,8.765c0,5.789-2.753,9.99-6.545,9.99c-0.879,0-1.666-0.357-2.158-0.979
				c-0.46-0.582-0.61-1.338-0.423-2.128c0.237-0.999,0.561-2.047,0.873-3.06c0.586-1.901,1.141-3.696,1.141-5.161
				c0-2.62-1.623-4.381-4.037-4.381c-2.996,0-5.342,3-5.342,6.828c0,1.723,0.43,3.05,0.668,3.654
				c-0.409,1.731-2.35,9.938-2.739,11.612c-0.379,1.632-0.377,3.707-0.255,5.527C6.093,40.961,1,32.98,1,24C1,11.318,11.318,1,24,1
				 M24,0C10.745,0,0,10.745,0,24c0,10.168,6.326,18.852,15.254,22.349c-0.21-1.898-0.399-4.812,0.083-6.885
				c0.436-1.873,2.814-11.93,2.814-11.93s-0.718-1.438-0.718-3.563c0-3.336,1.934-5.828,4.342-5.828
				c2.048,0,3.037,1.537,3.037,3.381c0,2.059-1.311,5.138-1.987,7.99c-0.565,2.39,1.198,4.338,3.554,4.338
				c4.266,0,7.545-4.498,7.545-10.99c0-5.746-4.129-9.765-10.025-9.765c-6.828,0-10.837,5.122-10.837,10.415
				c0,2.063,0.795,4.275,1.786,5.478c0.196,0.237,0.225,0.446,0.166,0.688c-0.182,0.758-0.587,2.389-0.666,2.722
				c-0.069,0.291-0.199,0.429-0.41,0.429c-0.108,0-0.238-0.036-0.393-0.108c-2.998-1.396-4.872-5.778-4.872-9.298
				c0-7.571,5.501-14.523,15.858-14.523c8.325,0,14.795,5.933,14.795,13.861c0,8.271-5.215,14.928-12.453,14.928
				c-2.433,0-4.719-1.264-5.501-2.756c0,0-1.203,4.583-1.495,5.705c-0.542,2.085-2.005,4.698-2.983,6.292
				C19.14,47.625,21.526,48,24,48c13.255,0,24-10.745,24-24S37.255,0,24,0L24,0z"/>
		</g>
	</g>
	<path style="&st0;" d="M1.914,33.405c-0.54-1.269-0.97-2.595-1.287-3.964C0.33,28.163,0.135,26.848,0.052,25.5
		C0.021,25.996,0,26.496,0,27c0,9.909,6.005,18.413,14.574,22.076l-0.05-3.037C8.869,43.604,4.33,39.071,1.914,33.405z"/>
	<path style="&st0;" d="M47.949,25.5c-0.084,1.348-0.279,2.663-0.576,3.941c-0.317,1.369-0.747,2.695-1.287,3.965
		C42.427,41.985,33.917,48,24,48c-2.224,0-4.371-0.317-6.414-0.883l-1.024,2.702C18.904,50.582,21.402,51,24,51
		c13.256,0,24-10.744,24-24C48,26.496,47.979,25.996,47.949,25.5z"/>
</g>
</svg>
