<?xml version="1.0" encoding="utf-8"?>
<!-- Generator: Adobe Illustrator 16.0.4, SVG Export Plug-In . SVG Version: 6.00 Build 0)  -->
<!DOCTYPE svg PUBLIC "-//W3C//DTD SVG 1.1//EN" "http://www.w3.org/Graphics/SVG/1.1/DTD/svg11.dtd" [
	<!ENTITY st0 "opacity:0.5;fill:#9D47B2;">
	<!ENTITY st1 "opacity:0.5;">
	<!ENTITY st2 "fill:#9D47B2;">
	<!ENTITY st3 "fill:#362B3C;">
	<!ENTITY st4 "fill:#71117E;">
]>
<svg version="1.1" id="Layer_1" xmlns="http://www.w3.org/2000/svg" xmlns:xlink="http://www.w3.org/1999/xlink" x="0px" y="0px"
	 width="48px" height="102px" viewBox="0 0 48 102" style="enable-background:new 0 0 48 102;" xml:space="preserve">
<g>
	<path style="&st2;" d="M18.13,46.753c-4.696-1.211-8.98-3.907-12.118-7.637C2.458,34.89,0.5,29.522,0.5,24
		C0.5,11.042,11.042,0.5,24,0.5S47.5,11.042,47.5,24c0,5.521-1.956,10.888-5.509,15.112c-3.139,3.732-7.423,6.429-12.117,7.64
		c0.007-3.762,0.014-8.751,0.014-10.264c0-1.439-0.348-2.71-0.975-3.631c4.279-0.639,9.382-2.684,9.382-11.046
		c0-2.264-0.724-4.25-2.15-5.911c0.303-0.91,0.764-3.059-0.322-5.8l-0.087-0.22l-0.225-0.072c-0.055-0.018-0.261-0.074-0.636-0.074
		c-0.829,0-2.641,0.293-5.549,2.225c-1.69-0.448-3.48-0.678-5.323-0.685c-1.849,0.007-3.638,0.237-5.326,0.684
		c-2.911-1.932-4.724-2.225-5.554-2.225c-0.375,0-0.581,0.057-0.635,0.074l-0.225,0.072l-0.087,0.22
		c-1.084,2.742-0.623,4.89-0.32,5.8c-1.429,1.664-2.153,3.651-2.153,5.91c0,8.359,5.095,10.413,9.365,11.062
		c-0.4,0.592-0.688,1.331-0.838,2.165c-0.476,0.189-1.219,0.418-2.024,0.418c-1.429,0-2.569-0.712-3.389-2.115
		c-0.045-0.083-1.294-2.306-3.708-2.476c-0.003,0-0.007,0-0.01,0c-0.504,0-1.293,0.092-1.477,0.686
		c-0.191,0.618,0.445,1.148,1.021,1.541c0.077,0.043,1.332,0.685,2.217,2.933l0,0c-0.001,0,1.099,3.468,5.575,3.468
		c0.531,0,1.094-0.049,1.68-0.147C18.119,40.768,18.13,46.753,18.13,46.753z"/>
	<path style="&st3;" d="M24,1c12.683,0,23,10.318,23,23c0,5.404-1.915,10.656-5.392,14.79c-2.932,3.487-6.884,6.049-11.233,7.307
		c0.007-3.665,0.013-8.182,0.013-9.608c0-1.225-0.24-2.342-0.683-3.255c4.301-0.789,9.09-3.136,9.09-11.422
		c0-2.292-0.704-4.315-2.094-6.023c0.311-1.09,0.633-3.228-0.414-5.871l-0.174-0.439l-0.45-0.145
		c-0.092-0.029-0.353-0.098-0.788-0.098c-1.057,0-2.879,0.387-5.639,2.185c-1.667-0.421-3.426-0.638-5.239-0.645
		c-1.809,0.007-3.566,0.224-5.23,0.645c-2.762-1.798-4.586-2.185-5.644-2.185c-0.435,0-0.696,0.068-0.788,0.098l-0.451,0.145
		l-0.174,0.44c-1.045,2.644-0.722,4.781-0.412,5.871c-1.391,1.712-2.095,3.736-2.095,6.023c0,8.283,4.783,10.639,9.076,11.438
		c-0.208,0.43-0.371,0.907-0.484,1.418c-0.424,0.147-0.99,0.29-1.589,0.29c-1.256,0-2.223-0.611-2.944-1.845
		c-0.058-0.104-1.435-2.556-4.118-2.745l-0.043-0.002H9.066c-1.032,0-1.714,0.369-1.921,1.04c-0.324,1.049,0.795,1.813,1.216,2.101
		l0.068,0.042l0.053,0.028c0.045,0.023,1.103,0.593,1.903,2.607c0.162,0.478,1.455,3.811,6.05,3.811c0.38,0,0.775-0.023,1.182-0.071
		c0.004,1.488,0.008,3.964,0.012,6.176c-4.35-1.257-8.303-3.819-11.234-7.304C2.916,34.658,1,29.404,1,24C1,11.318,11.318,1,24,1
		 M24,0C10.745,0,0,10.745,0,24c0,5.881,2.118,11.264,5.629,15.438c3.3,3.923,7.832,6.77,13.002,7.952
		c-0.006-3.224-0.014-7.715-0.019-8.648c-0.809,0.176-1.532,0.251-2.178,0.251c-4.158,0-5.109-3.151-5.109-3.151
		c-0.982-2.496-2.4-3.163-2.4-3.163c-1.891-1.291,0-1.314,0.141-1.314c0.005,0,0.008,0,0.008,0c2.17,0.153,3.312,2.229,3.312,2.229
		c1.078,1.847,2.532,2.363,3.82,2.363c1.017,0,1.93-0.322,2.474-0.565c0.196-1.398,0.755-2.353,1.374-2.892
		c-4.802-0.547-9.851-2.401-9.851-10.688c0-2.361,0.843-4.29,2.225-5.802c-0.222-0.548-0.965-2.746,0.213-5.725
		c0,0,0.157-0.05,0.482-0.05c0.784,0,2.546,0.29,5.465,2.267c1.726-0.479,3.574-0.72,5.413-0.727
		c1.837,0.007,3.686,0.247,5.414,0.727c2.917-1.977,4.678-2.267,5.46-2.267c0.326,0,0.482,0.05,0.482,0.05
		c1.18,2.979,0.437,5.177,0.215,5.725c1.385,1.512,2.223,3.44,2.223,5.802c0,8.309-5.057,10.136-9.874,10.67
		c0.776,0.67,1.467,1.989,1.467,4.007c0,1.6-0.008,7.088-0.015,10.9c5.169-1.183,9.701-4.031,13.001-7.955
		C45.883,35.262,48,29.881,48,24C48,10.745,37.255,0,24,0L24,0z"/>
</g>
<g>
	<g style="&st1;">
		<path style="&st4;" d="M24,54C10.745,54,0,64.745,0,78c0,5.881,2.118,11.264,5.629,15.438c3.3,3.923,7.832,6.77,13.002,7.952
			c-0.006-3.224-0.014-7.715-0.019-8.648c-6.017,1.307-7.287-2.899-7.287-2.899c-0.982-2.496-2.4-3.163-2.4-3.163
			c-1.963-1.34,0.149-1.314,0.149-1.314c2.17,0.153,3.312,2.229,3.312,2.229c1.93,3.305,5.062,2.35,6.294,1.798
			c0.196-1.398,0.755-2.353,1.374-2.892c-4.802-0.547-9.851-2.401-9.851-10.688c0-2.361,0.843-4.29,2.225-5.802
			c-0.222-0.548-0.965-2.746,0.213-5.725c0,0,1.814-0.582,5.947,2.217c1.726-0.479,3.574-0.72,5.413-0.727
			c1.837,0.007,3.686,0.247,5.414,0.727c4.13-2.799,5.942-2.217,5.942-2.217c1.18,2.979,0.437,5.177,0.215,5.725
			c1.385,1.512,2.223,3.44,2.223,5.802c0,8.309-5.057,10.136-9.874,10.67c0.776,0.67,1.467,1.989,1.467,4.007
			c0,1.6-0.008,7.088-0.015,10.9c5.169-1.183,9.701-4.031,13.001-7.955C45.883,89.262,48,83.881,48,78C48,64.745,37.255,54,24,54z"
			/>
	</g>
	<g>
		<path style="&st3;" d="M24,51C10.745,51,0,61.745,0,75c0,5.881,2.118,11.264,5.629,15.438c3.3,3.923,7.832,6.77,13.002,7.952
			c-0.006-3.224-0.014-7.715-0.019-8.648c-6.017,1.307-7.287-2.899-7.287-2.899c-0.982-2.496-2.4-3.163-2.4-3.163
			c-1.963-1.34,0.149-1.314,0.149-1.314c2.17,0.153,3.312,2.229,3.312,2.229c1.93,3.305,5.062,2.35,6.294,1.798
			c0.196-1.398,0.755-2.353,1.374-2.892c-4.802-0.547-9.851-2.401-9.851-10.688c0-2.361,0.843-4.29,2.225-5.802
			c-0.222-0.548-0.965-2.746,0.213-5.725c0,0,1.814-0.582,5.947,2.217c1.726-0.479,3.574-0.72,5.413-0.727
			c1.837,0.007,3.686,0.247,5.414,0.727c4.13-2.799,5.942-2.217,5.942-2.217c1.18,2.979,0.437,5.177,0.215,5.725
			c1.385,1.512,2.223,3.44,2.223,5.802c0,8.309-5.057,10.136-9.874,10.67c0.776,0.67,1.467,1.989,1.467,4.007
			c0,1.6-0.008,7.088-0.015,10.9c5.169-1.183,9.701-4.031,13.001-7.955C45.883,86.262,48,80.881,48,75C48,61.745,37.255,51,24,51z"
			/>
	</g>
</g>
<path style="&st0;" d="M48,27c0-0.504-0.021-1.004-0.051-1.5c-0.084,1.348-0.279,2.663-0.576,3.941
	c-0.317,1.369-0.747,2.695-1.287,3.965C43.112,40.379,36.934,45.657,29.4,47.39h0.1v2.97C40.104,47.873,48,38.362,48,27z"/>
<path style="&st0;" d="M18.6,47.39c-7.534-1.732-13.713-7.011-16.686-13.984c-0.54-1.269-0.97-2.595-1.287-3.964
	C0.33,28.163,0.135,26.848,0.052,25.5C0.021,25.996,0,26.496,0,27c0,11.362,7.896,20.873,18.5,23.359v-2.97H18.6z"/>
</svg>
