<?xml version="1.0" encoding="utf-8"?>
<!-- Generator: Adobe Illustrator 16.0.4, SVG Export Plug-In . SVG Version: 6.00 Build 0)  -->
<!DOCTYPE svg PUBLIC "-//W3C//DTD SVG 1.1//EN" "http://www.w3.org/Graphics/SVG/1.1/DTD/svg11.dtd">
<svg version="1.1" xmlns="http://www.w3.org/2000/svg" xmlns:xlink="http://www.w3.org/1999/xlink" x="0px" y="0px" width="48px"
	 height="102px" viewBox="0 0 48 102" style="enable-background:new 0 0 48 102;" xml:space="preserve">
<style type="text/css">
<![CDATA[
	.st0{display:inline;fill:#E8C95A;}
	.st1{fill-rule:evenodd;clip-rule:evenodd;fill:#71117E;}
	.st2{fill:#12A8A5;}
	.st3{fill:#E29A4C;}
	.st4{fill:#E3A730;}
	.st5{fill:#E3F2BF;}
	.st6{fill:#E4F0D7;}
	.st7{fill:#E55F7C;}
	.st8{opacity:0.5;fill:#55ACEE;}
	.st9{fill:#E6E6E6;}
	.st10{fill:#198583;}
	.st11{fill-rule:evenodd;clip-rule:evenodd;fill:none;}
	.st12{fill:#E8C95A;}
	.st13{opacity:0.5;fill:#BC112A;}
	.st14{opacity:0.15;}
	.st15{opacity:0.25;}
	.st16{opacity:0.35;}
	.st17{opacity:0.5;fill:none;stroke:#F3695A;stroke-miterlimit:10;}
	.st18{opacity:0.5;fill:#F3695A;}
	.st19{fill:#EAAF56;}
	.st20{fill:#EB9A2D;}
	.st21{fill:#EBB060;}
	.st22{fill:#EDA44C;}
	.st23{fill:#534E58;}
	.st24{display:inline;fill:#F3695A;}
	.st25{fill:#55ACEE;}
	.st26{opacity:0.2;fill:#EDA44C;stroke:#362B3C;stroke-miterlimit:10;}
	.st27{fill:#575757;}
	.st28{display:inline;fill:none;stroke:#3E5054;stroke-width:1.2;stroke-miterlimit:10;}
	.st29{fill:#58504E;}
	.st30{fill:#8C652F;}
	.st31{fill:#BC112A;}
	.st32{fill:#BD081C;}
	.st33{fill:#8E8A75;}
	.st34{fill:#BEBEBF;}
	.st35{fill:#BF1B3A;}
	.st36{fill:#F19D39;}
	.st37{fill:#238D83;}
	.st38{fill:#F2C549;}
	.st39{fill:#F3695A;}
	.st40{fill:#299488;}
	.st41{display:inline;fill:#999999;}
	.st42{display:inline;fill:#FCC457;}
	.st43{fill:#F9B4AC;}
	.st44{fill-rule:evenodd;clip-rule:evenodd;fill:#EDA44C;}
	.st45{opacity:0.5;fill:#9D47B2;}
	.st46{fill:#C1DA84;}
	.st47{display:inline;fill:#FFFFFF;}
	.st48{fill:#C2BAC4;}
	.st49{fill:#2B8F83;}
	.st50{fill:#FBAB01;}
	.st51{fill:#999999;}
	.st52{fill:#FCC457;}
	.st53{fill:none;stroke:#EB9A2D;stroke-width:2;stroke-linecap:round;stroke-linejoin:round;stroke-miterlimit:10;}
	.st54{opacity:0.2;fill:#9D47B2;}
	.st55{fill-rule:evenodd;clip-rule:evenodd;}
	.st56{display:inline;fill:#CCCCCC;}
	.st57{opacity:0.2;}
	.st58{opacity:0.3;}
	.st59{opacity:0.4;}
	.st60{opacity:0.5;}
	.st61{opacity:0.6;}
	.st62{fill:#615957;}
	.st63{fill:#FFDD8B;}
	.st64{fill:#FFFFFF;}
	.st65{display:inline;fill:#333333;}
	.st66{fill:none;}
	.st67{display:inline;fill:#362B3C;}
	.st68{fill:none;stroke:#3E5054;stroke-width:1.2;stroke-linecap:round;stroke-linejoin:round;stroke-miterlimit:10;}
	.st69{fill:#9D47B2;}
	.st70{fill:#CCCCCC;}
	.st71{display:inline;}
	.st72{opacity:0.5;fill:#0873B2;}
	.st73{fill:#333333;}
	.st74{display:inline;fill:none;}
	.st75{fill:#362B3C;}
	.st76{opacity:0.6;fill:#EDA44C;}
	.st77{display:inline;fill:#3E5054;}
	.st78{fill-rule:evenodd;clip-rule:evenodd;fill:#643C6B;}
	.st79{fill:#0873B2;}
	.st80{fill-rule:evenodd;clip-rule:evenodd;fill:#9D47B2;}
	.st81{fill:#3E5054;}
	.st82{fill:none;stroke:#EB9A2D;stroke-width:1.6;stroke-miterlimit:10;}
	.st83{fill:#71117E;}
	.st84{display:none;}
	.st85{fill:#75685E;}
	.st86{fill-rule:evenodd;clip-rule:evenodd;fill:#362B3C;}
	.st87{fill:#DADBD0;}
	.st88{fill:#0D8072;}
	.st89{fill:#40413B;}
	.st90{opacity:0.5;fill:none;stroke:#362B3C;stroke-miterlimit:10;}
	.st91{fill:#45D7B0;}
]]>
</style>
<g id="Desc">
	<g>
		<g class="st60">
			<path class="st79" d="M24,54C10.744,54,0,64.745,0,78c0,13.256,10.744,24,24,24s24-10.744,24-24C48,64.745,37.256,54,24,54z
				 M16.68,89.676h-5.346v-17.18h5.346V89.676z M14.008,70.148c-1.715,0-3.098-1.387-3.098-3.096s1.383-3.097,3.098-3.097
				c1.709,0,3.096,1.388,3.096,3.097S15.717,70.148,14.008,70.148z M36.678,89.676h-5.34v-8.354c0-1.992-0.033-4.556-2.773-4.556
				c-2.779,0-3.203,2.172-3.203,4.413v8.497h-5.332v-17.18h5.117v2.349h0.074c0.711-1.351,2.453-2.774,5.051-2.774
				c5.406,0,6.406,3.557,6.406,8.184V89.676z"/>
		</g>
		<g>
			<path class="st75" d="M24,51C10.744,51,0,61.745,0,75c0,13.256,10.744,24,24,24s24-10.744,24-24C48,61.745,37.256,51,24,51z
				 M16.68,86.676h-5.346v-17.18h5.346V86.676z M14.008,67.148c-1.715,0-3.098-1.387-3.098-3.096s1.383-3.097,3.098-3.097
				c1.709,0,3.096,1.388,3.096,3.097S15.717,67.148,14.008,67.148z M36.678,86.676h-5.34v-8.354c0-1.992-0.033-4.556-2.773-4.556
				c-2.779,0-3.203,2.172-3.203,4.413v8.497h-5.332v-17.18h5.117v2.349h0.074c0.711-1.351,2.453-2.774,5.051-2.774
				c5.406,0,6.406,3.557,6.406,8.184V86.676z"/>
		</g>
	</g>
	<rect id="_x3C_Slice_x3E_" class="st66" width="48" height="102"/>
	<g>
		<path class="st79" d="M24,47.5C11.042,47.5,0.5,36.958,0.5,24S11.042,0.5,24,0.5S47.5,11.042,47.5,24S36.958,47.5,24,47.5z
			 M28.564,23.266c2.106,0,2.273,1.758,2.273,4.056v8.854h6.34v-9.922c0-4.294-0.82-8.684-6.906-8.684
			c-2.081,0-3.642,0.859-4.625,1.867v-1.441h-6.117v18.18h6.332v-8.997C25.861,24.362,26.619,23.266,28.564,23.266z M10.834,36.176
			h6.346v-18.18h-6.346V36.176z M14.008,9.456c-1.983,0-3.598,1.613-3.598,3.597c0,1.982,1.614,3.596,3.598,3.596
			c1.982,0,3.596-1.613,3.596-3.596C17.604,11.069,15.99,9.456,14.008,9.456z"/>
		<path class="st75" d="M24,1c12.683,0,23,10.318,23,23S36.683,47,24,47S1,36.682,1,24S11.317,1,24,1 M14.008,17.148
			c2.259,0,4.096-1.838,4.096-4.096c0-2.259-1.837-4.097-4.096-4.097c-2.26,0-4.098,1.838-4.098,4.097
			C9.91,15.311,11.748,17.148,14.008,17.148 M26.146,18.354v-0.857h-1h-5.117h-1v1v17.18v1h1h5.332h1v-1v-8.497
			c0-2.854,0.808-3.413,2.203-3.413c1.393,0,1.773,0.765,1.773,3.556v8.354v1h1h5.34h1v-1v-9.422c0-4.275-0.842-9.184-7.406-9.184
			C28.564,17.07,27.18,17.612,26.146,18.354 M10.334,36.676h1h5.346h1v-1v-17.18v-1h-1h-5.346h-1v1v17.18V36.676 M24,0
			C10.744,0,0,10.745,0,24c0,13.256,10.744,24,24,24s24-10.744,24-24C48,10.745,37.256,0,24,0L24,0z M14.008,16.148
			c-1.715,0-3.098-1.387-3.098-3.096s1.383-3.097,3.098-3.097c1.709,0,3.096,1.388,3.096,3.097S15.717,16.148,14.008,16.148
			L14.008,16.148z M25.146,20.845h0.074c0.711-1.351,2.453-2.774,5.051-2.774c5.406,0,6.406,3.557,6.406,8.184v9.422h-5.34v-8.354
			c0-1.992-0.033-4.556-2.773-4.556c-2.779,0-3.203,2.172-3.203,4.413v8.497h-5.332v-17.18h5.117V20.845L25.146,20.845z
			 M11.334,35.676v-17.18h5.346v17.18H11.334L11.334,35.676z"/>
	</g>
	<path class="st72" d="M47.949,25.5c-0.084,1.348-0.279,2.663-0.576,3.941c-0.317,1.369-0.747,2.695-1.287,3.965
		C42.427,41.985,33.917,48,24,48S5.572,41.985,1.914,33.405c-0.54-1.269-0.97-2.595-1.287-3.964
		C0.33,28.163,0.135,26.848,0.052,25.5C0.021,25.996,0,26.496,0,27c0,13.256,10.744,24,24,24s24-10.744,24-24
		C48,26.496,47.979,25.996,47.949,25.5z"/>
</g>
</svg>
